<svg width="1439" height="179" viewBox="0 0 1439 179" fill="none" xmlns="http://www.w3.org/2000/svg">
<g clip-path="url(#clip0_1365_13033)">
<path d="M1439 0V142.802C1352.47 117.952 1263.8 98.9857 1173.82 85.28C762.644 -3.80714 346.212 30.0418 -2.9375 96.6322V0H1439Z" fill="white"/>
<path d="M1173.81 85.3516C1262.69 104.595 1351.3 129.653 1439 161.287C1439.76 161.564 1440.52 161.841 1441.28 162.117" stroke="#E9E9E9" stroke-width="3" stroke-miterlimit="10"/>
<path d="M-5.70703 155.194C-4.80716 154.986 -3.83807 154.709 -2.9382 154.501C363.932 65.8297 780.987 25.474 1173.82 85.3499" stroke="#E9E9E9" stroke-width="3" stroke-miterlimit="10"/>
<path d="M1441.28 143.497C1440.52 143.289 1439.76 143.082 1439 142.805" stroke="#E9E9E9" stroke-width="3" stroke-miterlimit="10"/>
<path opacity="0.7" d="M-2.17773 96.2854L-1.00098 154.016C-1.00098 154.016 306.062 80.2262 581.561 63.4055C742.915 53.5762 920.328 60.083 920.328 60.083C1043.19 63.4055 1198.6 90.6785 1198.6 90.6785C1115.11 69.4278 998.686 49.3537 854.983 38.9014C763.75 32.3254 694.46 29.8335 630.5 31.0794C458.971 34.402 322.329 39.5244 -2.17773 96.2854Z" fill="white"/>
<path d="M1441.28 162.114C947.395 -17.0293 422.355 15.5045 -2.9375 96.6313" stroke="#E9E9E9" stroke-width="3" stroke-miterlimit="10"/>
<path d="M1441.28 143.495C975.359 9.13706 446.512 45.478 -5.70703 155.193" stroke="#E9E9E9" stroke-width="3" stroke-miterlimit="10"/>
<path d="M-1 -1.24609V96.0783" stroke="#E9E9E9" stroke-width="3" stroke-miterlimit="10"/>
</g>
<defs>
<clipPath id="clip0_1365_13033">
<rect width="1440" height="178.52" fill="white" transform="translate(-1)"/>
</clipPath>
</defs>
</svg>
