<svg width="1440" height="180" viewBox="0 0 1440 180" fill="none" xmlns="http://www.w3.org/2000/svg">
<g clip-path="url(#clip0_1690_11287)">
<path d="M1440 0.730469V143.533C1353.47 118.683 1264.8 99.7162 1174.82 86.0105C763.644 -3.07667 347.212 30.7723 -1.9375 97.3627V0.730469H1440Z" fill="#F8F8F8"/>
<path d="M1174.81 86.082C1263.69 105.325 1352.3 130.383 1440 162.017C1440.76 162.294 1441.52 162.571 1442.28 162.848" stroke="#E9E9E9" stroke-width="3" stroke-miterlimit="10"/>
<path d="M-4.70703 155.924C-3.80716 155.717 -2.83807 155.44 -1.9382 155.232C364.932 66.5601 781.987 26.2044 1174.82 86.0804" stroke="#E9E9E9" stroke-width="3" stroke-miterlimit="10"/>
<path d="M1442.28 144.227C1441.52 144.02 1440.76 143.812 1440 143.535" stroke="#E9E9E9" stroke-width="3" stroke-miterlimit="10"/>
<path opacity="0.7" d="M-1.17773 97.0159L-0.000980958 154.746C-0.000980958 154.746 307.062 80.9567 582.561 64.136C743.915 54.3067 921.328 60.8134 921.328 60.8134C1044.19 64.136 1199.6 91.409 1199.6 91.409C1116.11 70.1582 999.686 50.0842 855.983 39.6319C764.75 33.0559 695.46 30.5639 631.5 31.8099C459.971 35.1325 323.329 40.2548 -1.17773 97.0159Z" fill="white"/>
<path d="M1442.28 162.845C948.395 -16.2988 423.355 16.235 -1.9375 97.3617" stroke="#E9E9E9" stroke-width="3" stroke-miterlimit="10"/>
<path d="M1442.28 144.225C976.359 9.86752 447.512 46.2084 -4.70703 155.923" stroke="#E9E9E9" stroke-width="3" stroke-miterlimit="10"/>
<path d="M0 -0.515625V96.8088" stroke="#E9E9E9" stroke-width="3" stroke-miterlimit="10"/>
</g>
<defs>
<clipPath id="clip0_1690_11287">
<rect width="1440" height="178.52" fill="white" transform="translate(0 0.730469)"/>
</clipPath>
</defs>
</svg>
