<svg width="1440" height="179" viewBox="0 0 1440 179" fill="none" xmlns="http://www.w3.org/2000/svg">
<g clip-path="url(#clip0_2837_1417)">
<path d="M1440 0V142.802C1353.47 117.952 1264.8 98.9857 1174.82 85.28C763.644 -3.80714 347.212 30.0418 -1.9375 96.6322V0H1440Z" fill="white"/>
<path d="M1174.81 85.3516C1263.69 104.595 1352.3 129.653 1440 161.287C1440.76 161.564 1441.52 161.841 1442.28 162.117" stroke="#E9E9E9" stroke-width="3" stroke-miterlimit="10"/>
<path d="M-4.70703 155.194C-3.80716 154.986 -2.83807 154.709 -1.9382 154.501C364.932 65.8297 781.987 25.474 1174.82 85.3499" stroke="#E9E9E9" stroke-width="3" stroke-miterlimit="10"/>
<path d="M1442.28 143.497C1441.52 143.289 1440.76 143.082 1440 142.805" stroke="#E9E9E9" stroke-width="3" stroke-miterlimit="10"/>
<path opacity="0.7" d="M-1.17773 96.2854L-0.000980958 154.016C-0.000980958 154.016 307.062 80.2262 582.561 63.4055C743.915 53.5762 921.328 60.083 921.328 60.083C1044.19 63.4055 1199.6 90.6785 1199.6 90.6785C1116.11 69.4278 999.686 49.3537 855.983 38.9014C764.75 32.3254 695.46 29.8335 631.5 31.0794C459.971 34.402 323.329 39.5244 -1.17773 96.2854Z" fill="white"/>
<path d="M1442.28 162.114C948.395 -17.0293 423.355 15.5045 -1.9375 96.6313" stroke="#E9E9E9" stroke-width="3" stroke-miterlimit="10"/>
<path d="M1442.28 143.495C976.359 9.13706 447.512 45.478 -4.70703 155.193" stroke="#E9E9E9" stroke-width="3" stroke-miterlimit="10"/>
<path d="M0 -1.24609V96.0783" stroke="#E9E9E9" stroke-width="3" stroke-miterlimit="10"/>
</g>
<defs>
<clipPath id="clip0_2837_1417">
<rect width="1440" height="178.52" fill="white"/>
</clipPath>
</defs>
</svg>
