<svg width="109" height="90" viewBox="0 0 109 90" fill="none" xmlns="http://www.w3.org/2000/svg">
<g clip-path="url(#clip0_1056_7749)">
<path d="M2.42969 9.60547H20.3703" stroke="white" stroke-width="4" stroke-miterlimit="10" stroke-linecap="round"/>
<path d="M83.1355 9.60547H106.16" stroke="white" stroke-width="4" stroke-miterlimit="10" stroke-linecap="round"/>
<path d="M79.514 2.29297H23.9812C21.9542 2.29297 20.311 3.93616 20.311 5.96313V13.0174C20.311 15.0444 21.9542 16.6876 23.9812 16.6876H79.514C81.541 16.6876 83.1842 15.0444 83.1842 13.0174V5.96313C83.1842 3.93616 81.541 2.29297 79.514 2.29297Z" stroke="white" stroke-width="4" stroke-miterlimit="10" stroke-linecap="round"/>
<path d="M61.3195 16.6875V21.2482C61.3195 23.2722 59.6787 24.9184 57.6494 24.9184H45.8455C43.8215 24.9184 42.1753 23.2776 42.1753 21.2482V16.6875" stroke="white" stroke-width="4" stroke-miterlimit="10" stroke-linecap="round"/>
<path d="M56.9369 24.8906V27.395C56.9369 29.419 55.2961 31.0651 53.2668 31.0651H50.2173C48.1933 31.0651 46.5471 29.4244 46.5471 27.395V24.8906" stroke="white" stroke-width="4" stroke-miterlimit="10" stroke-linecap="round"/>
<path d="M62.6311 65.1195C64.1423 68.849 65.1894 72.19 65.1894 74.2625C65.1894 81.6892 59.1714 87.7072 51.7447 87.7072C44.318 87.7072 38.3 81.6892 38.3 74.2625C38.3 66.8358 51.7447 43.2227 51.7447 43.2227C51.7447 43.2227 53.3531 46.0508 55.4581 50.0502" stroke="white" stroke-width="4" stroke-miterlimit="10" stroke-linecap="round"/>
<path d="M58.7236 56.4727C59.1014 57.2391 59.4739 58.0217 59.8409 58.8043" stroke="white" stroke-width="4" stroke-miterlimit="10" stroke-linecap="round"/>
</g>
<defs>
<clipPath id="clip0_1056_7749">
<rect width="108.318" height="90" fill="white" transform="translate(0.135742)"/>
</clipPath>
</defs>
</svg>
