<svg width="78" height="90" viewBox="0 0 78 90" fill="none" xmlns="http://www.w3.org/2000/svg">
<g clip-path="url(#clip0_1056_7759)">
<path d="M32.0843 22.6732C33.3882 25.8931 34.2912 28.7695 34.2912 30.5579C34.2912 36.9625 29.1022 42.1514 22.6976 42.1514C16.2929 42.1514 11.104 36.9625 11.104 30.5579C11.104 24.1532 22.6976 3.78516 22.6976 3.78516C22.6976 3.78516 24.0851 6.22104 25.8999 9.67445" stroke="white" stroke-width="4" stroke-miterlimit="10" stroke-linecap="round"/>
<path d="M28.6265 15.0312C29.0097 15.8153 29.3929 16.6082 29.7673 17.4055" stroke="white" stroke-width="4" stroke-miterlimit="10" stroke-linecap="round"/>
<path d="M63.7552 56.1311C60.1652 65.095 55.0908 72.6361 46.8846 81.001C36.9473 90.9383 20.0723 90.2688 10.1349 80.3314C0.197547 70.3941 0.197547 54.2811 10.1349 44.3438" stroke="white" stroke-width="4" stroke-miterlimit="10" stroke-linecap="round"/>
<path d="M40.3918 26.6423C49.4394 24.0699 60.685 22.5546 74.8554 22.9378C71.7897 29.3777 69.8691 37.4078 67.3496 45.7065" stroke="white" stroke-width="4" stroke-miterlimit="10" stroke-linecap="round"/>
<path d="M48.4705 39.4795C53.3863 35.9204 59.0069 32.3965 65.4027 29.0664" stroke="white" stroke-width="4" stroke-miterlimit="10" stroke-linecap="round"/>
<path d="M17.3325 74.5229C17.3325 74.5229 23.5742 59.4583 42.9512 43.7109" stroke="white" stroke-width="4" stroke-miterlimit="10" stroke-linecap="round"/>
<path d="M22.9133 60.4414C23.1424 61.5426 23.3802 62.6482 23.6225 63.7098" stroke="white" stroke-width="4" stroke-miterlimit="10" stroke-linecap="round"/>
<path d="M21.0061 50.3984C21.0061 50.3984 21.2836 52.0238 21.7197 54.3628" stroke="white" stroke-width="4" stroke-miterlimit="10" stroke-linecap="round"/>
<path d="M45.7703 53.5156C46.5411 53.5949 47.3252 53.6786 48.1181 53.7755" stroke="white" stroke-width="4" stroke-miterlimit="10" stroke-linecap="round"/>
<path d="M33.1501 52.8281C33.1501 52.8281 35.6741 52.8325 39.3213 53.0263" stroke="white" stroke-width="4" stroke-miterlimit="10" stroke-linecap="round"/>
</g>
<defs>
<clipPath id="clip0_1056_7759">
<rect width="76.9704" height="90" fill="white" transform="translate(0.809814)"/>
</clipPath>
</defs>
</svg>
