<svg width="104" height="90" viewBox="0 0 104 90" fill="none" xmlns="http://www.w3.org/2000/svg">
<g clip-path="url(#clip0_1056_7794)">
<path d="M22.0202 53.4709C22.0202 53.4709 27.6676 64.7658 21.2863 67.1289C14.8997 69.4919 6.86314 68.3104 4.26063 61.4554C1.65812 54.6004 3.73492 50.7695 5.1559 48.6406" stroke="white" stroke-width="4" stroke-miterlimit="10" stroke-linecap="round"/>
<path d="M9.46043 57.1962C9.46043 57.1962 0.710792 45.1362 5.91581 36.8602C11.1208 28.5842 19.173 29.6721 22.7176 30.38" stroke="white" stroke-width="4" stroke-miterlimit="10" stroke-linecap="round"/>
<path d="M17.7363 55.3063C17.7363 55.3063 21.2809 51.7617 25.7781 54.1248C30.2752 56.4879 32.4613 54.8639 32.4613 54.8639" stroke="white" stroke-width="4" stroke-miterlimit="10" stroke-linecap="round"/>
<path d="M20.5522 32.8564C22.3792 30.2382 25.2003 28.1094 29.5569 28.1094C40.9091 28.1094 42.7985 34.4959 42.7985 34.4959" stroke="white" stroke-width="4" stroke-miterlimit="10" stroke-linecap="round"/>
<path d="M17.2627 42.5328C17.2627 42.5328 17.3668 40.9817 17.9029 38.8945" stroke="white" stroke-width="4" stroke-miterlimit="10" stroke-linecap="round"/>
<path d="M35.2356 40.411C35.2356 40.411 39.2539 31.6614 48.4772 35.4455C57.7005 39.2295 57.461 43.9609 57.461 43.9609" stroke="white" stroke-width="4" stroke-miterlimit="10" stroke-linecap="round"/>
<path d="M32.1646 45.8516C32.1646 45.8516 28.3702 61.2532 43.5584 60.0665" stroke="white" stroke-width="4" stroke-miterlimit="10" stroke-linecap="round"/>
<path d="M44.459 49.3945C44.459 49.3945 36.8909 57.6705 48.9509 64.765C48.9509 64.765 55.3375 68.7832 61.7188 68.7832" stroke="white" stroke-width="4" stroke-miterlimit="10" stroke-linecap="round"/>
<path d="M49.8982 43.957C49.8982 43.957 61.9582 42.0675 69.7605 49.3962C77.5629 56.7249 87.7335 67.3691 87.0256 69.2586C86.3177 71.148 76.3865 72.3347 71.8894 71.6216C67.3923 70.9086 59.3557 69.9664 56.7532 63.5799C54.1507 57.1933 54.1507 55.7776 50.6061 52.7014" stroke="white" stroke-width="4" stroke-miterlimit="10" stroke-linecap="round"/>
<path d="M66.9238 56.7227C66.9238 56.7227 67.8711 62.1619 62.4319 60.9804" stroke="white" stroke-width="4" stroke-miterlimit="10" stroke-linecap="round"/>
<path d="M56.2849 40.8793C56.2849 40.8793 63.9051 40.4108 65.0502 40.4108C66.1953 40.4108 69.7971 40.2079 66.1953 46.7558" stroke="white" stroke-width="4" stroke-miterlimit="10" stroke-linecap="round"/>
<path d="M72.3578 41.6018C69.0682 37.7762 67.8711 35.918 67.8711 35.918" stroke="white" stroke-width="4" stroke-miterlimit="10" stroke-linecap="round"/>
<path d="M81.0711 59.822C81.3053 57.1726 81.17 51.2337 76.3813 46.0859" stroke="white" stroke-width="4" stroke-miterlimit="10" stroke-linecap="round"/>
<path d="M21.5205 82.4994C30.2701 89.1202 32.1596 88.6465 33.5805 85.8098C35.0015 82.973 36.0217 77.4609 36.0217 77.4609" stroke="white" stroke-width="4" stroke-miterlimit="10" stroke-linecap="round"/>
<path d="M11.8286 68.0742C11.8286 68.0742 12.1982 71.1244 14.6133 75.0229" stroke="white" stroke-width="4" stroke-miterlimit="10" stroke-linecap="round"/>
<path d="M24.4353 62.1523L40.4407 70.2045C40.4407 70.2045 44.9327 71.8597 40.9144 75.4095C36.8961 78.9541 35.2409 78.012 27.6728 72.807" stroke="white" stroke-width="4" stroke-miterlimit="10" stroke-linecap="round"/>
<path d="M22.4313 30.4232C22.4313 30.4232 21.3279 25.0985 25.7053 20.7211C30.0827 16.3437 33.4035 16.2188 33.4035 16.2188" stroke="white" stroke-width="4" stroke-miterlimit="10" stroke-linecap="round"/>
<path d="M34.4236 28.4957C34.2987 28.4957 30.0826 20.5945 34.0957 14.9002C34.8869 13.7759 35.7509 12.8702 36.6358 12.1415C40.2324 9.19025 44.2611 9.16943 45.9684 9.33079C48.0972 9.53379 49.3672 9.98662 50.8403 10.9287" stroke="white" stroke-width="4" stroke-miterlimit="10" stroke-linecap="round"/>
<path d="M60.1938 9.26953C63.2648 9.6495 65.8465 10.8206 66.9344 11.9553" stroke="white" stroke-width="4" stroke-miterlimit="10" stroke-linecap="round"/>
<path d="M47.3634 18.8357C47.3634 18.8357 46.5879 12.8968 52.3602 10.3203" stroke="white" stroke-width="4" stroke-miterlimit="10" stroke-linecap="round"/>
<path d="M90.6275 15.2539C95.26 16.8727 99.0128 18.4706 99.8508 19.038C101.735 20.308 103.005 21.9059 98.4975 24.524C93.99 27.1422 82.8981 32.342 77.5733 29.7239C72.2486 27.1057 68.4021 22.7231 65.4561 22.2338" stroke="white" stroke-width="4" stroke-miterlimit="10" stroke-linecap="round"/>
<path d="M60.9954 16.0104C60.9954 16.0104 64.8835 10.8106 73.1543 11.0552C75.4913 11.1229 78.4894 11.6903 81.6281 12.497" stroke="white" stroke-width="4" stroke-miterlimit="10" stroke-linecap="round"/>
<path d="M58.83 22.1523C58.83 22.1523 57.9295 29.481 64.1131 31.8961C70.2966 34.3113 78.5674 31.8545 80.3267 30.4648" stroke="white" stroke-width="4" stroke-miterlimit="10" stroke-linecap="round"/>
<path d="M47.405 24.5234C47.405 24.5234 47.53 28.0837 51.3348 31.2379C55.1397 34.3922 60.0949 33.4917 62.4736 31.113" stroke="white" stroke-width="4" stroke-miterlimit="10" stroke-linecap="round"/>
<path d="M45.7654 34.6373C45.7654 34.6373 48.9613 35.2515 51.6627 31.4414" stroke="white" stroke-width="4" stroke-miterlimit="10" stroke-linecap="round"/>
<path d="M89.9146 9.76172C91.9653 11.8958 92.9126 14.3734 92.9335 16.091" stroke="white" stroke-width="4" stroke-miterlimit="10" stroke-linecap="round"/>
<path d="M70.6611 2.21094C70.6611 2.21094 74.5076 4.38143 82.0862 5.72953" stroke="white" stroke-width="4" stroke-miterlimit="10" stroke-linecap="round"/>
<path d="M79.7907 18.6289C79.7907 18.6289 81.4719 19.4877 81.4719 21.7415C81.4719 23.9953 79.0151 24.0317 79.0151 24.0317" stroke="white" stroke-width="4" stroke-miterlimit="10" stroke-linecap="round"/>
</g>
<defs>
<clipPath id="clip0_1056_7794">
<rect width="102.981" height="90" fill="white" transform="translate(0.804443)"/>
</clipPath>
</defs>
</svg>
