<svg width="91" height="90" viewBox="0 0 91 90" fill="none" xmlns="http://www.w3.org/2000/svg">
<g clip-path="url(#clip0_1056_7781)">
<path d="M30.7773 58.4492C33.3612 60.8035 34.9773 64.1932 34.9773 67.9611" stroke="white" stroke-width="4" stroke-miterlimit="10" stroke-linecap="round"/>
<path d="M64.9805 65.1901C61.6448 64.1502 58.7413 61.7644 57.1477 58.3477" stroke="white" stroke-width="4" stroke-miterlimit="10" stroke-linecap="round"/>
<path d="M17.4436 17.9594C18.3484 14.7453 20.4011 12.1659 23.0256 10.5273" stroke="white" stroke-width="4" stroke-miterlimit="10" stroke-linecap="round"/>
<path d="M21.9633 88.0823C10.9569 88.0823 2.03931 79.1602 2.03931 68.1583C2.03931 57.1565 10.9614 48.2344 21.9633 48.2344" stroke="white" stroke-width="4" stroke-miterlimit="10" stroke-linecap="round"/>
<path d="M29.7195 49.8008C36.8725 52.8258 41.8872 59.9068 41.8872 68.1582C41.8872 76.4096 36.868 83.4906 29.7195 86.5156" stroke="white" stroke-width="4" stroke-miterlimit="10" stroke-linecap="round"/>
<path d="M68.6267 32.9062C76.6305 32.9062 83.5314 37.6239 86.7005 44.4303" stroke="white" stroke-width="4" stroke-miterlimit="10" stroke-linecap="round"/>
<path d="M88.5506 52.8328C88.5506 63.8392 79.6285 72.7568 68.6266 72.7568C57.6248 72.7568 48.7026 63.8347 48.7026 52.8328C48.7026 44.82 53.4338 37.9101 60.2537 34.75" stroke="white" stroke-width="4" stroke-miterlimit="10" stroke-linecap="round"/>
<path d="M44.5026 35.2842C40.8608 39.2636 35.621 41.762 29.8004 41.762C18.7941 41.762 9.87646 32.8399 9.87646 21.838C9.87646 10.8362 18.7941 1.91406 29.8004 1.91406C34.8152 1.91406 39.3978 3.76871 42.9 6.82528" stroke="white" stroke-width="4" stroke-miterlimit="10" stroke-linecap="round"/>
<path d="M48.7341 15.625C49.3733 17.5787 49.7199 19.6674 49.7199 21.8372C49.7199 24.0069 49.3688 26.1317 48.7161 28.0989" stroke="white" stroke-width="4" stroke-miterlimit="10" stroke-linecap="round"/>
</g>
<defs>
<clipPath id="clip0_1056_7781">
<rect width="90.3376" height="90" fill="white" transform="translate(0.126221)"/>
</clipPath>
</defs>
</svg>
