<svg width="127" height="126" viewBox="0 0 127 126" fill="none" xmlns="http://www.w3.org/2000/svg">
<g clip-path="url(#clip0_484_10268)">
<path d="M41.8496 110.931C42.2475 110.003 42.9865 109.346 43.8107 109.146C44.3791 110.017 45.4449 110.903 46.8233 111.346C48.1449 111.774 48.7844 111.503 48.9975 110.86C49.1823 110.246 48.9975 109.803 47.1075 108.618C45.2886 107.504 43.7822 106.175 44.5212 103.804C45.2317 101.533 47.4912 100.662 50.1912 101.519C52.2233 102.162 53.3744 103.262 53.886 104.033C53.5591 104.861 52.806 105.661 51.9249 105.861C51.3991 105.161 50.5181 104.39 49.2107 103.976C48.1307 103.633 47.4202 103.847 47.2496 104.404C47.0649 104.99 47.2496 105.333 49.1823 106.518C51.2002 107.775 52.4081 109.189 51.7828 111.317C51.0296 113.888 48.8128 114.745 45.9849 113.845C43.6259 113.088 42.4038 111.831 41.8638 110.931" fill="#6E7272"/>
<path d="M64.0904 110.018C64.1757 107.647 62.9109 106.104 60.8788 106.033C58.8467 105.947 57.4683 107.39 57.3688 109.761C57.2835 112.074 58.5483 113.645 60.5804 113.731C62.6125 113.817 64.0051 112.346 64.0904 110.032M54.2567 109.632C54.413 105.762 57.2125 103.162 60.9783 103.319C64.7441 103.462 67.3446 106.176 67.1883 110.146C67.0462 113.988 64.2325 116.588 60.4667 116.445C56.7009 116.302 54.1004 113.574 54.2567 109.632Z" fill="#6E7272"/>
<path d="M70.4702 115.603L68.4238 103.392C68.8644 103.22 69.3049 103.106 69.788 103.021C70.2712 102.935 70.7259 102.906 71.2517 102.906L73.2981 115.103C72.8575 115.261 72.417 115.375 71.9338 115.446C71.4649 115.532 70.9817 115.575 70.4702 115.575" fill="#6E7272"/>
<path d="M83.7991 109.29C84.0265 109.675 84.2112 110.061 84.3391 110.475C84.4812 110.875 84.5807 111.304 84.6233 111.746L77.1201 114.331L73.127 102.605C73.5533 102.377 73.9796 102.177 74.4343 102.02C74.8891 101.863 75.358 101.763 75.8412 101.691L78.9959 110.961L83.7849 109.304L83.7991 109.29Z" fill="#6E7272"/>
<path d="M53.3468 125.587C53.2616 125.587 53.1905 125.587 53.1053 125.572C42.6463 123.801 32.6847 119.317 24.3146 112.59C23.6751 112.075 23.5615 111.119 24.073 110.462C24.5846 109.805 25.5083 109.69 26.162 110.204C34.1341 116.617 43.6268 120.888 53.6026 122.573C54.4126 122.716 54.9526 123.487 54.8248 124.316C54.7111 125.058 54.0716 125.587 53.3611 125.587" fill="#6E7272"/>
<path d="M70.9538 126.003C70.2149 126.003 69.5754 125.432 69.4759 124.66C69.3764 123.832 69.9591 123.075 70.7691 122.975C99.5597 119.504 121.956 95.5384 124.03 66.0166C124.087 65.1882 124.798 64.5598 125.622 64.6169C126.432 64.674 127.057 65.4024 127 66.2308C124.812 97.2095 101.322 122.347 71.1243 125.989C71.0675 125.989 71.0107 125.989 70.9538 125.989" fill="#6E7272"/>
<path d="M123.831 47.5907C123.163 47.5907 122.566 47.1337 122.395 46.4481C118.075 28.8236 106.423 14.0698 90.4358 5.98588C89.6968 5.61454 89.3984 4.70046 89.7679 3.95777C90.1373 3.2008 91.0184 2.90087 91.7573 3.27221C108.54 11.756 120.761 27.2239 125.28 45.7054C125.479 46.5195 124.996 47.3336 124.2 47.5479C124.086 47.5765 123.959 47.5907 123.845 47.5907" fill="#6E7272"/>
<path d="M17.2516 105.249C16.8395 105.249 16.4416 105.077 16.1432 104.749C5.72686 92.8374 0 77.4837 0 61.5016C0 33.7793 17.2374 9.0992 42.8875 0.0869592C43.6691 -0.184408 44.5075 0.229784 44.7775 1.0296C45.0476 1.82942 44.6354 2.68637 43.8539 2.95774C19.3974 11.5415 2.97001 35.079 2.97001 61.5016C2.97001 76.7267 8.42688 91.3663 18.3459 102.707C18.8859 103.335 18.8432 104.292 18.2322 104.849C17.948 105.106 17.5927 105.235 17.2516 105.235" fill="#6E7272"/>
<path d="M62.0862 48.7756C51.5704 48.7756 43.0156 40.1775 43.0156 29.6085C43.0156 19.0395 51.5704 10.4414 62.0862 10.4414C72.6021 10.4414 81.1568 19.0395 81.1568 29.6085C81.1568 40.1775 72.6021 48.7756 62.0862 48.7756ZM62.0862 12.698C52.8067 12.698 45.2467 20.2963 45.2467 29.6228C45.2467 38.9492 52.8067 46.5475 62.0862 46.5475C71.3657 46.5475 78.9258 38.9492 78.9258 29.6228C78.9258 20.2963 71.3657 12.698 62.0862 12.698Z" fill="#7EBC42"/>
<path d="M40.9405 90.081C29.6147 90.081 20.4062 80.826 20.4062 69.4429C20.4062 58.0597 29.6147 48.8047 40.9405 48.8047C52.2664 48.8047 61.4748 58.0597 61.4748 69.4429C61.4748 80.826 52.2664 90.081 40.9405 90.081ZM40.9405 51.0328C30.8368 51.0328 22.6231 59.288 22.6231 69.4429C22.6231 79.5977 30.8368 87.853 40.9405 87.853C51.0443 87.853 59.258 79.5977 59.258 69.4429C59.258 59.288 51.0443 51.0328 40.9405 51.0328Z" fill="#7EBC42"/>
<path d="M55.3921 70.5555C54.781 70.5555 54.2837 70.0556 54.2837 69.4414C54.2837 62.0574 48.301 56.0445 40.9541 56.0445C40.3431 56.0445 39.8457 55.5446 39.8457 54.9304C39.8457 54.3163 40.3431 53.8164 40.9541 53.8164C49.5373 53.8164 56.5005 60.8291 56.5005 69.4557C56.5005 70.0699 56.0031 70.5697 55.3921 70.5697" fill="#7EBC42"/>
<path d="M87.4102 85.4389C76.6955 85.4389 67.9844 76.6838 67.9844 65.9148C67.9844 55.1458 76.6955 46.3906 87.4102 46.3906C98.125 46.3906 106.836 55.1458 106.836 65.9148C106.836 76.6838 98.125 85.4389 87.4102 85.4389ZM87.4102 48.5044C77.8607 48.5044 70.0875 56.3169 70.0875 65.9148C70.0875 75.5126 77.8607 83.3251 87.4102 83.3251C96.9598 83.3251 104.733 75.5126 104.733 65.9148C104.733 56.3169 96.9598 48.5044 87.4102 48.5044Z" fill="#7EBC42"/>
<path d="M101.065 66.9721C100.483 66.9721 100.014 66.5008 100.014 65.9152C100.014 58.931 94.358 53.2466 87.409 53.2466C86.8264 53.2466 86.3574 52.7753 86.3574 52.1897C86.3574 51.6041 86.8264 51.1328 87.409 51.1328C95.5232 51.1328 102.117 57.7742 102.117 65.9152C102.117 66.5008 101.648 66.9721 101.065 66.9721Z" fill="#7EBC42"/>
<path d="M75.8423 30.0515C75.2313 30.0515 74.7339 29.5517 74.7339 28.9375C74.7339 22.3104 69.3623 16.9117 62.7686 16.9117C62.1575 16.9117 61.6602 16.4118 61.6602 15.7976C61.6602 15.1835 62.1575 14.6836 62.7686 14.6836C70.5986 14.6836 76.965 21.0821 76.965 28.9518C76.965 29.5659 76.4676 30.0658 75.8565 30.0658" fill="#7EBC42"/>
</g>
<defs>
<clipPath id="clip0_484_10268">
<rect width="127" height="126" fill="white"/>
</clipPath>
</defs>
</svg>
