<svg width="136" height="72" viewBox="0 0 136 72" fill="none" xmlns="http://www.w3.org/2000/svg">
<g clip-path="url(#clip0_2837_4675)">
<path d="M79.5403 27.2123C78.9925 27.0689 78.5542 26.8753 78.2109 26.6387L78.8756 25.1472C79.197 25.3552 79.5695 25.5272 79.9858 25.6563C80.4094 25.7854 80.8258 25.8499 81.2348 25.8499C82.009 25.8499 82.3961 25.6563 82.3961 25.2691C82.3961 25.0612 82.2866 24.9106 82.0601 24.8174C81.841 24.717 81.4831 24.6166 80.9937 24.5019C80.4533 24.3871 80.0077 24.2652 79.6498 24.129C79.2919 23.9927 78.9779 23.7848 78.7222 23.4908C78.4666 23.1968 78.3351 22.8024 78.3351 22.3076C78.3351 21.8702 78.452 21.4759 78.693 21.1245C78.934 20.7731 79.2846 20.4935 79.7594 20.2927C80.2341 20.0848 80.8112 19.9844 81.4977 19.9844C81.9652 19.9844 82.4326 20.0346 82.8855 20.1421C83.3383 20.2497 83.74 20.4003 84.0906 20.6082L83.4698 22.114C82.7905 21.7483 82.1332 21.5619 81.4904 21.5619C81.0887 21.5619 80.7965 21.6193 80.6139 21.7412C80.4313 21.8631 80.3364 22.0137 80.3364 22.2073C80.3364 22.4009 80.446 22.5443 80.6651 22.6375C80.8842 22.7307 81.2348 22.8311 81.7168 22.9315C82.2646 23.0462 82.7102 23.1753 83.0681 23.3044C83.426 23.4406 83.7327 23.6486 83.9957 23.9354C84.2586 24.2222 84.3901 24.6166 84.3901 25.1185C84.3901 25.5488 84.2732 25.936 84.0322 26.2873C83.7912 26.6315 83.4333 26.9112 82.9585 27.1191C82.4838 27.3271 81.9067 27.4346 81.2202 27.4346C80.6432 27.4346 80.0808 27.3629 79.533 27.2195L79.5403 27.2123Z" fill="#76777A"/>
<path d="M86.2966 27.0042C85.8218 26.7604 85.4493 26.4162 85.1791 25.9788C84.9088 25.5414 84.7773 25.0467 84.7773 24.4945C84.7773 23.9424 84.9088 23.462 85.1791 23.0246C85.4493 22.5871 85.8218 22.2501 86.2893 22.0063C86.7567 21.7625 87.2972 21.6406 87.8961 21.6406C88.4951 21.6406 89.0356 21.7625 89.5103 22.0063C89.9851 22.2501 90.3576 22.5871 90.6205 23.0174C90.8835 23.4476 91.0149 23.9424 91.0149 24.4945C91.0149 25.0467 90.8835 25.5414 90.6205 25.9788C90.3576 26.4162 89.9851 26.7533 89.5103 27.0042C89.0356 27.2552 88.4951 27.3699 87.8961 27.3699C87.2972 27.3699 86.7713 27.248 86.2966 27.0042ZM88.7361 25.4769C88.9552 25.2403 89.0648 24.9176 89.0648 24.5017C89.0648 24.0858 88.9552 23.7703 88.7361 23.5408C88.517 23.3114 88.2394 23.1966 87.8961 23.1966C87.5529 23.1966 87.2753 23.3114 87.0562 23.5408C86.8371 23.7703 86.7275 24.093 86.7275 24.5017C86.7275 24.9104 86.8371 25.2403 87.0562 25.4769C87.2753 25.7135 87.5529 25.8283 87.8961 25.8283C88.2394 25.8283 88.517 25.7135 88.7361 25.4769Z" fill="#76777A"/>
<path d="M91.8184 19.6953H93.7612V27.2818H91.8184V19.6953Z" fill="#76777A"/>
<path d="M100.736 21.7422V27.2851H98.8884V26.6899C98.6839 26.9122 98.4428 27.0843 98.1507 27.199C97.8585 27.3137 97.559 27.3711 97.245 27.3711C96.5292 27.3711 95.9595 27.1632 95.5358 26.7401C95.1122 26.317 94.9004 25.686 94.9004 24.8399V21.7422H96.8432V24.5244C96.8432 24.9403 96.9236 25.2414 97.077 25.435C97.2304 25.6287 97.4641 25.7219 97.7636 25.7219C98.063 25.7219 98.3187 25.6143 98.5159 25.3992C98.7131 25.1841 98.808 24.8542 98.808 24.4097V21.7422H100.751H100.736Z" fill="#76777A"/>
<path d="M103.06 27.0042C102.578 26.7604 102.198 26.4162 101.935 25.9788C101.672 25.5414 101.533 25.0467 101.533 24.4945C101.533 23.9424 101.665 23.4476 101.935 23.0174C102.205 22.5871 102.578 22.2501 103.06 22.0063C103.542 21.7625 104.09 21.6406 104.703 21.6406C105.317 21.6406 105.872 21.7769 106.325 22.0422C106.777 22.3075 107.106 22.6875 107.296 23.1608L105.799 23.928C105.55 23.4333 105.178 23.1823 104.696 23.1823C104.353 23.1823 104.06 23.297 103.834 23.5265C103.608 23.756 103.491 24.0786 103.491 24.4874C103.491 24.8961 103.608 25.2259 103.834 25.4626C104.06 25.6992 104.353 25.8139 104.696 25.8139C105.178 25.8139 105.55 25.5629 105.799 25.0682L107.296 25.8354C107.106 26.3159 106.785 26.6887 106.325 26.954C105.872 27.2265 105.324 27.3556 104.703 27.3556C104.082 27.3556 103.542 27.2337 103.06 26.9899V27.0042Z" fill="#76777A"/>
<path d="M108.04 20.8297C107.82 20.629 107.711 20.3852 107.711 20.0912C107.711 19.7972 107.82 19.5534 108.04 19.3526C108.259 19.1518 108.544 19.0586 108.894 19.0586C109.245 19.0586 109.537 19.1518 109.749 19.3382C109.968 19.5247 110.077 19.7685 110.077 20.0625C110.077 20.3565 109.968 20.6218 109.749 20.8226C109.53 21.0233 109.245 21.1237 108.894 21.1237C108.544 21.1237 108.251 21.0233 108.04 20.8297ZM107.93 21.7404H109.873V27.2833H107.93V21.7404Z" fill="#76777A"/>
<path d="M112.197 27.0042C111.722 26.7604 111.35 26.4162 111.079 25.9788C110.809 25.5414 110.678 25.0467 110.678 24.4945C110.678 23.9424 110.809 23.462 111.079 23.0246C111.35 22.5871 111.722 22.2501 112.19 22.0063C112.657 21.7625 113.198 21.6406 113.797 21.6406C114.395 21.6406 114.936 21.7625 115.411 22.0063C115.885 22.2501 116.258 22.5871 116.521 23.0174C116.784 23.4476 116.915 23.9424 116.915 24.4945C116.915 25.0467 116.784 25.5414 116.521 25.9788C116.258 26.4162 115.885 26.7533 115.411 27.0042C114.936 27.2552 114.395 27.3699 113.797 27.3699C113.198 27.3699 112.672 27.248 112.197 27.0042ZM114.636 25.4769C114.856 25.2403 114.965 24.9176 114.965 24.5017C114.965 24.0858 114.856 23.7703 114.636 23.5408C114.417 23.3114 114.14 23.1966 113.797 23.1966C113.453 23.1966 113.176 23.3114 112.957 23.5408C112.737 23.7703 112.628 24.093 112.628 24.5017C112.628 24.9104 112.737 25.2403 112.957 25.4769C113.176 25.7135 113.453 25.8283 113.797 25.8283C114.14 25.8283 114.417 25.7135 114.636 25.4769Z" fill="#76777A"/>
<path d="M122.985 22.2658C123.401 22.6745 123.613 23.2911 123.613 24.1158V27.2852H121.67V24.4313C121.67 23.6712 121.363 23.2983 120.765 23.2983C120.429 23.2983 120.166 23.4059 119.961 23.6282C119.757 23.8433 119.662 24.1731 119.662 24.6105V27.2923H117.719V21.7495H119.567V22.3518C119.786 22.1295 120.041 21.9574 120.341 21.8355C120.64 21.7136 120.969 21.6562 121.32 21.6562C122.006 21.6562 122.561 21.8642 122.978 22.2729L122.985 22.2658Z" fill="#76777A"/>
<path d="M130.428 25.0036H126.403C126.484 25.2905 126.644 25.5128 126.878 25.6633C127.112 25.8139 127.404 25.8928 127.762 25.8928C128.025 25.8928 128.258 25.8569 128.448 25.7781C128.646 25.7064 128.836 25.5773 129.033 25.4124L130.055 26.4736C129.515 27.0759 128.733 27.3699 127.696 27.3699C127.046 27.3699 126.484 27.248 125.994 27.0042C125.505 26.7604 125.125 26.4162 124.855 25.9788C124.585 25.5414 124.453 25.0467 124.453 24.4945C124.453 23.9424 124.585 23.462 124.848 23.0246C125.11 22.5943 125.476 22.2501 125.936 22.0063C126.396 21.7625 126.922 21.6406 127.499 21.6406C128.076 21.6406 128.551 21.7554 128.996 21.9848C129.449 22.2143 129.8 22.5441 130.063 22.9744C130.326 23.4046 130.457 23.9209 130.457 24.516C130.457 24.5304 130.45 24.6881 130.428 24.9965V25.0036ZM126.761 23.2827C126.557 23.4548 126.432 23.6842 126.381 23.9782H128.646C128.594 23.6842 128.463 23.4548 128.266 23.2827C128.061 23.1106 127.813 23.0246 127.513 23.0246C127.214 23.0246 126.966 23.1106 126.761 23.2827Z" fill="#76777A"/>
<path d="M131.903 27.22C131.45 27.1124 131.093 26.9762 130.822 26.8041L131.407 25.4775C131.655 25.6353 131.954 25.7572 132.305 25.8504C132.648 25.9436 132.999 25.9867 133.335 25.9867C133.649 25.9867 133.868 25.9508 134.007 25.8863C134.146 25.8217 134.204 25.7285 134.204 25.6066C134.204 25.4847 134.124 25.3987 133.963 25.3485C133.802 25.2983 133.547 25.2481 133.203 25.1979C132.758 25.1405 132.385 25.0688 132.079 24.9828C131.772 24.8967 131.502 24.7318 131.275 24.4952C131.049 24.2585 130.939 23.9215 130.939 23.4913C130.939 23.1399 131.041 22.8244 131.253 22.5448C131.465 22.2651 131.772 22.05 132.174 21.8922C132.575 21.7345 133.065 21.6484 133.627 21.6484C134.029 21.6484 134.43 21.6915 134.825 21.7703C135.219 21.8492 135.548 21.9711 135.818 22.1145L135.234 23.4339C134.745 23.1614 134.211 23.0252 133.642 23.0252C133.335 23.0252 133.108 23.061 132.97 23.1328C132.824 23.2045 132.758 23.2977 132.758 23.4124C132.758 23.5415 132.838 23.6347 132.992 23.6849C133.145 23.7351 133.408 23.7924 133.766 23.8426C134.219 23.9143 134.598 23.9861 134.898 24.0793C135.197 24.1725 135.46 24.3302 135.679 24.5669C135.899 24.8035 136.008 25.1333 136.008 25.5564C136.008 25.9006 135.906 26.2161 135.694 26.4886C135.482 26.7682 135.168 26.9834 134.759 27.1411C134.35 27.2989 133.853 27.3777 133.276 27.3777C132.816 27.3777 132.356 27.3276 131.911 27.22H131.903Z" fill="#76777A"/>
<path d="M83.4763 32.2257C83.8853 32.4623 84.214 32.7922 84.455 33.2296C84.696 33.6598 84.8202 34.169 84.8202 34.7354C84.8202 35.3019 84.696 35.811 84.455 36.2413C84.214 36.6715 83.8853 37.0085 83.4763 37.2451C83.0673 37.4818 82.6071 37.5965 82.1031 37.5965C81.4604 37.5965 80.9418 37.4029 80.562 37.0157V39.4895H78.6191V31.9604H80.467V32.5125C80.8249 32.0823 81.3727 31.8672 82.1031 31.8672C82.6071 31.8672 83.0673 31.9819 83.4763 32.2185V32.2257ZM82.5341 35.7035C82.7532 35.4668 82.8627 35.1442 82.8627 34.7354C82.8627 34.3267 82.7532 34.004 82.5341 33.7674C82.315 33.5308 82.0374 33.416 81.6941 33.416C81.3508 33.416 81.0733 33.5308 80.8542 33.7674C80.635 34.004 80.5255 34.3267 80.5255 34.7354C80.5255 35.1442 80.635 35.4668 80.8542 35.7035C81.0733 35.9401 81.3508 36.0548 81.6941 36.0548C82.0374 36.0548 82.315 35.9401 82.5341 35.7035Z" fill="#76777A"/>
<path d="M89.9565 32.5021C90.4386 32.918 90.6796 33.5634 90.6796 34.431V37.5072H88.8755V36.7901C88.5979 37.3279 88.0501 37.6004 87.2394 37.6004C86.8085 37.6004 86.4433 37.5287 86.1292 37.3781C85.8151 37.2275 85.5814 37.0268 85.4207 36.7686C85.26 36.5105 85.1797 36.2236 85.1797 35.8938C85.1797 35.3703 85.3842 34.9616 85.7859 34.6748C86.1876 34.388 86.8085 34.2374 87.6411 34.2374H88.744C88.7075 33.6494 88.3204 33.3554 87.5681 33.3554C87.3051 33.3554 87.0349 33.3984 86.7646 33.4845C86.4944 33.5705 86.2607 33.6853 86.0708 33.8358L85.4207 32.5164C85.7275 32.3085 86.1 32.1507 86.5382 32.0432C86.9765 31.9285 87.4147 31.8711 87.8602 31.8711C88.7805 31.8711 89.4817 32.079 89.9638 32.5021H89.9565ZM88.3715 36.2093C88.5395 36.1017 88.6637 35.9368 88.7367 35.7289V35.2484H87.8968C87.3344 35.2484 87.0495 35.4349 87.0495 35.8078C87.0495 35.9798 87.1152 36.1161 87.2467 36.2165C87.3782 36.3169 87.5535 36.3671 87.7799 36.3671C88.0063 36.3671 88.2035 36.3097 88.3715 36.2021V36.2093Z" fill="#76777A"/>
<path d="M94.4176 32.0653C94.7316 31.9363 95.0968 31.8789 95.5058 31.8789V33.6285C95.3305 33.607 95.1845 33.5999 95.0676 33.5999C94.6513 33.5999 94.3299 33.7146 94.0962 33.9369C93.8625 34.1592 93.7456 34.5033 93.7456 34.9694V37.515H91.8027V31.9721H93.6506V32.639C93.8478 32.388 94.1035 32.1944 94.4176 32.0725V32.0653Z" fill="#76777A"/>
<path d="M100.619 32.5021C101.101 32.918 101.342 33.5634 101.342 34.431V37.5072H99.5376V36.7901C99.2601 37.3279 98.7123 37.6004 97.9015 37.6004C97.4706 37.6004 97.1054 37.5287 96.7913 37.3781C96.4772 37.2275 96.2435 37.0268 96.0828 36.7686C95.9221 36.5105 95.8418 36.2236 95.8418 35.8938C95.8418 35.3703 96.0463 34.9616 96.448 34.6748C96.8497 34.388 97.4706 34.2374 98.3032 34.2374H99.4061C99.3696 33.6494 98.9825 33.3554 98.2302 33.3554C97.9673 33.3554 97.697 33.3984 97.4268 33.4845C97.1565 33.5705 96.9228 33.6853 96.7329 33.8358L96.0828 32.5164C96.3896 32.3085 96.7621 32.1507 97.2003 32.0432C97.6386 31.9285 98.0768 31.8711 98.5224 31.8711C99.4427 31.8711 100.144 32.079 100.626 32.5021H100.619ZM99.0336 36.2093C99.2016 36.1017 99.3258 35.9368 99.3988 35.7289V35.2484H98.5589C97.9965 35.2484 97.7116 35.4349 97.7116 35.8078C97.7116 35.9798 97.7774 36.1161 97.9088 36.2165C98.0403 36.3169 98.2156 36.3671 98.442 36.3671C98.6684 36.3671 98.8656 36.3097 99.0336 36.2021V36.2093Z" fill="#76777A"/>
<path d="M110.963 35.2302H106.938C107.019 35.517 107.179 35.7393 107.413 35.8899C107.647 36.0405 107.939 36.1194 108.297 36.1194C108.56 36.1194 108.794 36.0835 108.984 36.0046C109.181 35.9329 109.371 35.8038 109.568 35.6389L110.59 36.7002C110.05 37.3025 109.268 37.5965 108.231 37.5965C107.581 37.5965 107.019 37.4746 106.529 37.2308C106.04 36.987 105.66 36.6428 105.39 36.2054C105.12 35.768 104.988 35.2732 104.988 34.7211C104.988 34.1689 105.12 33.6885 105.383 33.2511C105.646 32.8209 106.011 32.4767 106.471 32.2329C106.931 31.9891 107.457 31.8672 108.034 31.8672C108.611 31.8672 109.086 31.9819 109.531 32.2114C109.984 32.4408 110.335 32.7707 110.598 33.2009C110.861 33.6312 110.992 34.1474 110.992 34.7426C110.992 34.7569 110.985 34.9147 110.963 35.223V35.2302ZM107.296 33.5093C107.092 33.6813 106.968 33.9108 106.917 34.2048H109.181C109.13 33.9108 108.998 33.6813 108.801 33.5093C108.596 33.3372 108.348 33.2511 108.049 33.2511C107.749 33.2511 107.501 33.3372 107.296 33.5093Z" fill="#76777A"/>
<path d="M111.787 29.9219H113.73V37.5084H111.787V29.9219Z" fill="#76777A"/>
<path d="M84.4999 40.1484V47.7349H82.652V47.1828C82.2941 47.613 81.7536 47.8281 81.0305 47.8281C80.5265 47.8281 80.0664 47.7134 79.6501 47.4768C79.2337 47.2402 78.9051 46.9031 78.664 46.4657C78.423 46.0283 78.2988 45.5264 78.2988 44.9527C78.2988 44.3791 78.423 43.8771 78.664 43.4469C78.9051 43.0167 79.2337 42.6797 79.6501 42.4502C80.0664 42.2207 80.5265 42.0988 81.0305 42.0988C81.6879 42.0988 82.1992 42.2924 82.5643 42.6725V40.1484H84.5072H84.4999ZM82.2649 45.9279C82.484 45.6913 82.5936 45.3686 82.5936 44.9527C82.5936 44.5368 82.484 44.2213 82.2722 43.9919C82.0604 43.7624 81.7828 43.6405 81.4395 43.6405C81.0963 43.6405 80.8187 43.7552 80.5996 43.9919C80.3805 44.2213 80.2709 44.544 80.2709 44.9527C80.2709 45.3615 80.3805 45.6913 80.5996 45.9279C80.8187 46.1646 81.0963 46.2793 81.4395 46.2793C81.7828 46.2793 82.0458 46.1646 82.2649 45.9279Z" fill="#76777A"/>
<path d="M91.2696 45.4529H87.2451C87.3254 45.7397 87.4861 45.962 87.7198 46.1125C87.9536 46.2631 88.2457 46.342 88.6036 46.342C88.8666 46.342 89.1003 46.3062 89.2902 46.2273C89.4801 46.1484 89.6773 46.0265 89.8745 45.8616L90.8971 46.9228C90.3566 47.5252 89.5751 47.8192 88.5379 47.8192C87.8878 47.8192 87.3254 47.6973 86.8361 47.4535C86.3467 47.2097 85.9669 46.8655 85.6966 46.4281C85.4264 45.9907 85.2949 45.4959 85.2949 44.9437C85.2949 44.3916 85.4264 43.9112 85.6893 43.4738C85.9523 43.0435 86.3175 42.6993 86.7776 42.4555C87.2378 42.2117 87.7637 42.0898 88.3407 42.0898C88.9177 42.0898 89.3925 42.2046 89.838 42.434C90.2908 42.6635 90.6414 42.9933 90.9044 43.4236C91.1673 43.8538 91.2988 44.3701 91.2988 44.9653C91.2988 44.9796 91.2915 45.1374 91.2696 45.4457V45.4529ZM87.603 43.7319C87.3985 43.904 87.2743 44.1335 87.2232 44.4275H89.4874C89.4363 44.1335 89.3048 43.904 89.1076 43.7319C88.9031 43.5598 88.6548 43.4738 88.3553 43.4738C88.0558 43.4738 87.8075 43.5598 87.603 43.7319Z" fill="#76777A"/>
<path d="M92.7392 47.6705C92.2863 47.5629 91.9285 47.4267 91.6582 47.2546L92.2425 45.928C92.4909 46.0858 92.7903 46.2077 93.1409 46.3009C93.4842 46.3941 93.8348 46.4372 94.1708 46.4372C94.4848 46.4372 94.704 46.4085 94.8427 46.3439C94.9742 46.2794 95.0399 46.1862 95.0399 46.0643C95.0399 45.9424 94.9596 45.8563 94.7989 45.8061C94.6382 45.7559 94.3826 45.7057 94.0393 45.6556C93.5938 45.5982 93.2213 45.5265 92.9145 45.4404C92.6077 45.3544 92.3375 45.1895 92.1111 44.9528C91.8846 44.7162 91.7751 44.3792 91.7751 43.949C91.7751 43.5976 91.8773 43.2821 92.0891 43.0024C92.301 42.73 92.6077 42.5077 93.0094 42.3499C93.4112 42.1922 93.9005 42.1133 94.4629 42.1133C94.8647 42.1133 95.2664 42.1563 95.6608 42.2352C96.0552 42.3141 96.3839 42.436 96.6541 42.5865L96.0698 43.9059C95.5804 43.6334 95.0473 43.4972 94.4775 43.4972C94.1708 43.4972 93.9443 43.5331 93.8056 43.6048C93.6595 43.6765 93.5938 43.7697 93.5938 43.8844C93.5938 44.0135 93.6741 44.1067 93.8275 44.1569C93.9809 44.2071 94.2438 44.2573 94.6017 44.3147C95.0546 44.3792 95.4344 44.4581 95.7338 44.5513C96.0333 44.6445 96.2962 44.8023 96.5153 45.0389C96.7345 45.2755 96.844 45.6054 96.844 46.0284C96.844 46.3726 96.7418 46.6881 96.53 46.9606C96.3181 47.2331 96.0041 47.4554 95.5951 47.6131C95.186 47.7709 94.6894 47.8498 94.1123 47.8498C93.6522 47.8498 93.192 47.7996 92.7465 47.692L92.7392 47.6705Z" fill="#76777A"/>
<path d="M102.044 42.728C102.526 43.1439 102.767 43.7893 102.767 44.6569V47.7331H100.963V47.016C100.686 47.5538 100.138 47.8263 99.3273 47.8263C98.8964 47.8263 98.5312 47.7546 98.2171 47.604C97.903 47.4535 97.6693 47.2527 97.5086 46.9945C97.3479 46.7364 97.2676 46.4496 97.2676 46.1197C97.2676 45.5963 97.4721 45.1875 97.8738 44.8935C98.2755 44.6067 98.8964 44.4561 99.729 44.4561H100.832C100.795 43.8682 100.408 43.5742 99.656 43.5742C99.393 43.5742 99.1228 43.6172 98.8525 43.7032C98.5823 43.7893 98.3486 43.904 98.1587 44.0546L97.5086 42.7352C97.8154 42.5272 98.1879 42.3695 98.6261 42.2619C99.0644 42.1472 99.5026 42.0898 99.9481 42.0898C100.868 42.0898 101.57 42.2978 102.052 42.7209L102.044 42.728ZM100.459 46.4352C100.627 46.3277 100.752 46.1627 100.825 45.9548V45.4744H99.9847C99.4223 45.4744 99.1374 45.6608 99.1374 46.0408C99.1374 46.2129 99.2031 46.3492 99.3346 46.4496C99.4661 46.55 99.6414 46.6001 99.8678 46.6001C100.094 46.6001 100.291 46.5428 100.459 46.4352Z" fill="#76777A"/>
<path d="M106.507 42.2919C106.821 42.1628 107.187 42.1055 107.596 42.1055V43.8551C107.42 43.8336 107.274 43.8264 107.157 43.8264C106.741 43.8264 106.42 43.9411 106.186 44.1634C105.952 44.3857 105.835 44.7299 105.835 45.196V47.7416H103.893V42.1987H105.74V42.8656C105.938 42.6146 106.193 42.421 106.507 42.2991V42.2919Z" fill="#76777A"/>
<path d="M110.904 42.2919C111.218 42.1628 111.583 42.1055 111.992 42.1055V43.8551C111.817 43.8336 111.671 43.8264 111.554 43.8264C111.138 43.8264 110.816 43.9411 110.583 44.1634C110.349 44.3857 110.232 44.7299 110.232 45.196V47.7416H108.289V42.1987H110.137V42.8656C110.334 42.6146 110.59 42.421 110.904 42.2991V42.2919Z" fill="#76777A"/>
<path d="M113.81 47.4613C113.335 47.2175 112.963 46.8733 112.693 46.4359C112.422 45.9985 112.291 45.5037 112.291 44.9516C112.291 44.3994 112.422 43.9118 112.693 43.4816C112.963 43.0513 113.335 42.7072 113.803 42.4634C114.278 42.2196 114.811 42.0977 115.41 42.0977C116.009 42.0977 116.549 42.2196 117.024 42.4634C117.499 42.7072 117.871 43.0442 118.134 43.4744C118.397 43.9046 118.529 44.3994 118.529 44.9516C118.529 45.5037 118.397 45.9985 118.134 46.4359C117.871 46.8733 117.499 47.2103 117.024 47.4613C116.549 47.7051 116.009 47.827 115.41 47.827C114.811 47.827 114.285 47.7051 113.81 47.4613ZM116.25 45.9339C116.469 45.6973 116.578 45.3746 116.578 44.9587C116.578 44.5428 116.469 44.2273 116.25 43.9979C116.031 43.7684 115.753 43.6465 115.41 43.6465C115.067 43.6465 114.789 43.7612 114.57 43.9979C114.351 44.2273 114.241 44.55 114.241 44.9587C114.241 45.3675 114.351 45.6973 114.57 45.9339C114.789 46.1706 115.067 46.2853 115.41 46.2853C115.753 46.2853 116.031 46.1706 116.25 45.9339Z" fill="#76777A"/>
<path d="M119.332 40.1484H121.275V47.7349H119.332V40.1484Z" fill="#76777A"/>
<path d="M122.43 40.1484H124.373V47.7349H122.43V40.1484Z" fill="#76777A"/>
<path d="M126.695 47.4613C126.22 47.2175 125.848 46.8733 125.577 46.4359C125.307 45.9985 125.176 45.5037 125.176 44.9516C125.176 44.3994 125.307 43.9118 125.577 43.4816C125.848 43.0513 126.22 42.7072 126.688 42.4634C127.162 42.2196 127.696 42.0977 128.295 42.0977C128.893 42.0977 129.434 42.2196 129.909 42.4634C130.384 42.7072 130.756 43.0442 131.019 43.4744C131.282 43.9046 131.413 44.3994 131.413 44.9516C131.413 45.5037 131.282 45.9985 131.019 46.4359C130.756 46.8733 130.384 47.2103 129.909 47.4613C129.434 47.7051 128.893 47.827 128.295 47.827C127.696 47.827 127.17 47.7051 126.695 47.4613ZM129.135 45.9339C129.354 45.6973 129.463 45.3746 129.463 44.9587C129.463 44.5428 129.354 44.2273 129.135 43.9979C128.915 43.7684 128.638 43.6465 128.295 43.6465C127.951 43.6465 127.674 43.7612 127.455 43.9979C127.235 44.2273 127.126 44.55 127.126 44.9587C127.126 45.3675 127.235 45.6973 127.455 45.9339C127.674 46.1706 127.951 46.2853 128.295 46.2853C128.638 46.2853 128.915 46.1706 129.135 45.9339Z" fill="#76777A"/>
<path d="M83.8853 52.9388C84.3016 53.3475 84.5135 53.9642 84.5135 54.7888V57.9582H82.5706V55.1043C82.5706 54.3514 82.2638 53.9714 81.6649 53.9714C81.3289 53.9714 81.066 54.0789 80.8615 54.3012C80.657 54.5163 80.562 54.8462 80.562 55.2836V57.9654H78.6191V50.3789H80.562V52.9388C80.7738 52.738 81.0221 52.5874 81.307 52.4871C81.5919 52.3867 81.8986 52.3365 82.2273 52.3365C82.9139 52.3365 83.469 52.5444 83.8853 52.9531V52.9388Z" fill="#76777A"/>
<path d="M91.4452 52.4141V57.9569H89.5973V57.3618C89.3928 57.5841 89.1518 57.7562 88.8596 57.8709C88.5748 57.9856 88.268 58.043 87.9539 58.043C87.2382 58.043 86.6685 57.835 86.2448 57.412C85.8212 56.9889 85.6094 56.3579 85.6094 55.5118V52.4141H87.5522V55.1963C87.5522 55.6122 87.6326 55.9133 87.786 56.1069C87.9393 56.3005 88.1731 56.3937 88.4725 56.3937C88.772 56.3937 89.0276 56.2862 89.2248 56.0711C89.422 55.856 89.517 55.5261 89.517 55.0815V52.4141H91.4599H91.4452Z" fill="#76777A"/>
<path d="M101.423 52.9409C101.825 53.3496 102.029 53.9663 102.029 54.7909V57.9603H100.087V55.1064C100.087 54.7192 100.014 54.4324 99.8675 54.2459C99.7214 54.0595 99.5169 53.9663 99.2467 53.9663C98.9545 53.9663 98.7208 54.0667 98.5455 54.2746C98.3702 54.4826 98.2825 54.7909 98.2825 55.2068V57.9603H96.3397V55.1064C96.3397 54.3535 96.0621 53.9735 95.4997 53.9735C95.2003 53.9735 94.9592 54.0738 94.7839 54.2818C94.6086 54.4897 94.521 54.7981 94.521 55.214V57.9675H92.5781V52.4246H94.426V53.0054C94.6305 52.7831 94.8716 52.611 95.1564 52.4963C95.4413 52.3816 95.748 52.3242 96.0767 52.3242C96.4638 52.3242 96.8144 52.3959 97.1212 52.5393C97.428 52.6827 97.6763 52.8979 97.8662 53.1919C98.0853 52.9122 98.3556 52.6971 98.6915 52.5465C99.0275 52.3959 99.3927 52.3242 99.7871 52.3242C100.466 52.3242 101.007 52.5322 101.416 52.9409H101.423Z" fill="#76777A"/>
<path d="M107.617 52.9546C108.099 53.3705 108.34 54.0158 108.34 54.8835V57.9597H106.536V57.2426C106.258 57.7804 105.71 58.0529 104.9 58.0529C104.469 58.0529 104.103 57.9812 103.789 57.8306C103.475 57.68 103.242 57.4792 103.081 57.2211C102.92 56.963 102.84 56.6761 102.84 56.3463C102.84 55.8228 103.044 55.4141 103.446 55.1201C103.848 54.8333 104.469 54.6827 105.301 54.6827H106.404C106.368 54.0947 105.981 53.8007 105.228 53.8007C104.965 53.8007 104.695 53.8437 104.425 53.9298C104.155 54.0158 103.921 54.1306 103.731 54.2811L103.081 52.9618C103.388 52.7538 103.76 52.5961 104.198 52.4885C104.637 52.3738 105.075 52.3164 105.52 52.3164C106.441 52.3164 107.142 52.5244 107.624 52.9474L107.617 52.9546ZM106.032 56.6618C106.2 56.5542 106.324 56.3893 106.397 56.1814V55.7009H105.557C104.995 55.7009 104.71 55.8874 104.71 56.2674C104.71 56.4395 104.775 56.5757 104.907 56.6761C105.038 56.7765 105.214 56.8267 105.44 56.8267C105.666 56.8267 105.864 56.7693 106.032 56.6618Z" fill="#76777A"/>
<path d="M114.723 52.9415C115.14 53.3503 115.351 53.9669 115.351 54.7915V57.9609H113.408V55.107C113.408 54.3541 113.102 53.9741 112.503 53.9741C112.167 53.9741 111.904 54.0817 111.699 54.3039C111.495 54.5191 111.4 54.8489 111.4 55.2863V57.9681H109.457V52.4252H111.305V53.0276C111.524 52.8053 111.78 52.6332 112.079 52.5113C112.379 52.3894 112.707 52.332 113.058 52.332C113.744 52.332 114.3 52.54 114.716 52.9487L114.723 52.9415Z" fill="#76777A"/>
<path d="M117.718 57.6878C117.244 57.444 116.871 57.0998 116.601 56.6624C116.331 56.225 116.199 55.7303 116.199 55.1781C116.199 54.626 116.331 54.1384 116.601 53.7081C116.871 53.2779 117.244 52.9337 117.711 52.6899C118.186 52.4461 118.719 52.3242 119.318 52.3242C119.917 52.3242 120.457 52.4461 120.932 52.6899C121.407 52.9337 121.779 53.2707 122.042 53.701C122.305 54.1312 122.437 54.626 122.437 55.1781C122.437 55.7303 122.305 56.225 122.042 56.6624C121.779 57.0998 121.407 57.4369 120.932 57.6878C120.457 57.9316 119.917 58.0535 119.318 58.0535C118.719 58.0535 118.193 57.9316 117.718 57.6878ZM120.158 56.1605C120.377 55.9239 120.487 55.6012 120.487 55.1853C120.487 54.7694 120.377 54.4539 120.158 54.2244C119.939 53.995 119.661 53.8731 119.318 53.8731C118.975 53.8731 118.697 53.9878 118.478 54.2244C118.259 54.4539 118.149 54.7766 118.149 55.1853C118.149 55.594 118.259 55.9239 118.478 56.1605C118.697 56.3971 118.975 56.5118 119.318 56.5118C119.661 56.5118 119.939 56.3971 120.158 56.1605Z" fill="#76777A"/>
<path d="M36.6733 72.0072C56.9273 72.0072 73.3465 55.8878 73.3465 36.0036C73.3465 16.1194 56.9273 0 36.6733 0C16.4192 0 0 16.1194 0 36.0036C0 55.8878 16.4192 72.0072 36.6733 72.0072Z" fill="white"/>
<path d="M70.4527 35.9146C70.4527 54.1996 55.2751 69.0213 36.5477 69.0213C17.8203 69.0213 3.00781 54.3215 3.00781 36.0365C3.00781 17.7515 17.8276 2.80078 36.5477 2.80078C55.2678 2.80078 70.4527 17.6224 70.4527 35.9074" fill="white"/>
<path d="M42.5155 47.2814C51.1999 47.0304 59.6068 47.7834 67.5681 49.3967C69.4598 45.2665 70.5189 40.6916 70.5189 35.873C70.5189 17.5664 55.3631 2.73047 36.6723 2.73047C17.9814 2.73047 2.81836 17.5664 2.81836 35.8658C2.81836 42.4771 4.80504 48.6367 8.216 53.8067C18.6607 49.9417 30.2594 47.6328 42.5155 47.2742" fill="#80BC00"/>
<path d="M15.4902 61.9819C21.2677 66.485 28.5863 69.1884 36.5476 69.1884C49.9942 69.1884 61.6148 61.5086 67.0709 50.3799C45.159 48.2143 27.812 54.546 15.4902 61.9819Z" fill="#0033A1"/>
<path d="M40.3964 39.4574C39.812 39.5865 39.1766 39.4216 38.5119 38.9698C39.0889 38.5252 39.6075 38.0161 40.0531 37.464C40.1699 37.3349 40.2868 37.1987 40.389 37.0553C41.3605 35.6498 41.8644 34.0508 41.8644 32.2438C41.8644 30.6591 41.47 29.225 40.6812 27.9486C39.8924 26.6722 38.8114 25.6683 37.4382 24.9369C36.0651 24.2055 34.524 23.8398 32.8294 23.8398C31.1349 23.8398 29.5938 24.2055 28.2133 24.9369C26.8402 25.6683 25.7592 26.6722 24.9704 27.9486C24.1815 29.225 23.7871 30.6591 23.7871 32.2438C23.7871 33.8285 24.1669 35.2411 24.9192 36.5175C25.6715 37.7938 26.7087 38.8121 28.0307 39.565C29.3527 40.3179 30.8354 40.7194 32.4861 40.7696C32.4861 40.7696 32.5008 40.7696 32.5081 40.7625C32.6103 40.7625 32.7126 40.7768 32.8221 40.7768C33.6548 40.7768 34.4509 40.6908 35.2105 40.5115C35.9336 41.3218 36.7663 41.9098 37.7012 42.2611C38.6799 42.6268 39.6806 42.6842 40.6885 42.4404C41.4408 42.2539 42.237 41.8667 42.8213 41.2859C42.8797 41.2285 41.324 38.8981 41.324 38.8981C41.0902 39.2423 40.7835 39.3785 40.3964 39.4646M30.5871 36.7899C29.8859 36.331 29.3308 35.7072 28.9072 34.9184C28.4836 34.1297 28.2791 33.2477 28.2791 32.2796C28.2791 31.3116 28.4836 30.4583 28.8999 29.6695C29.3162 28.8808 29.8713 28.2569 30.5798 27.8124C31.2883 27.3606 32.0552 27.1383 32.8806 27.1383C33.7059 27.1383 34.4655 27.3606 35.1594 27.8124C35.8533 28.2641 36.3938 28.8808 36.7955 29.6695C37.1899 30.4583 37.3871 31.3331 37.3871 32.2796C37.3871 33.2262 37.1899 34.1225 36.7955 34.9184C36.591 35.3271 36.3426 35.6928 36.0505 36.0155C35.9263 35.8147 35.7948 35.6211 35.6415 35.4275C35.0644 34.6961 34.429 34.101 33.5452 33.8213L31.3394 36.0514C31.9164 36.1948 32.5008 36.6465 32.8513 37.0553C32.9755 37.1915 33.0778 37.3277 33.1654 37.464C33.0705 37.464 32.9755 37.4855 32.8806 37.4855C32.0552 37.4855 31.2883 37.256 30.5944 36.7971" fill="white"/>
<path d="M20.3773 31.4564C19.625 31.1266 18.6609 30.8039 17.5069 30.474C16.7254 30.2374 16.141 30.051 15.7393 29.9004C15.3449 29.7498 15.0089 29.5562 14.7387 29.3196C14.4684 29.0758 14.3296 28.7818 14.3296 28.4232C14.3296 28.0647 14.483 27.7636 14.7971 27.5699C15.1039 27.3763 15.5348 27.276 16.0753 27.276C16.7546 27.276 17.6018 27.4409 18.6171 27.7636C19.625 28.0934 21.0347 28.6886 21.3049 29.3769L23.109 25.6124C22.2179 25.0531 21.1881 24.6085 20.0121 24.2715C18.8362 23.9345 17.6457 23.7695 16.4332 23.7695C15.0966 23.7695 13.9279 23.9775 12.92 24.3862C11.912 24.8021 11.1305 25.3901 10.5827 26.1502C10.0349 26.9103 9.75736 27.7994 9.75736 28.8105C9.75736 29.8861 10.0203 30.7465 10.5535 31.3919C11.0867 32.0372 11.7221 32.5177 12.4744 32.8403C13.2194 33.1558 14.169 33.4714 15.3084 33.7869C16.068 33.9876 16.6596 34.1669 17.0832 34.3103C17.5069 34.4609 17.8502 34.6545 18.135 34.9055C18.4126 35.1564 18.5513 35.4648 18.5513 35.8377C18.5513 36.2894 18.3614 36.6336 17.9889 36.863C17.6164 37.0925 17.1052 37.2144 16.4551 37.2144C15.564 37.2144 14.5415 36.9778 13.3947 36.5117C12.2407 36.0456 11.0575 35.35 10.5754 34.425L8.71289 38.0534C9.71354 38.878 10.9041 39.5305 12.2772 40.0038C13.6504 40.477 15.0308 40.7137 16.4113 40.7137C17.6676 40.7137 18.807 40.5201 19.8295 40.1328C20.8521 39.7456 21.6628 39.1648 22.2472 38.3904C22.8388 37.6231 23.1309 36.691 23.1309 35.601C23.1309 34.5111 22.8607 33.6291 22.3202 32.9551C21.7797 32.281 21.1296 31.7791 20.3773 31.4492" fill="white"/>
<path d="M62.3826 39.2205V34.7747H62.368V25.374C62.368 24.4275 62.6529 24.0977 62.6529 24.0977H57.6204L57.2333 24.8793L52.8071 33.6704L48.3663 24.8936L47.9719 24.0977H42.9395C42.9395 24.0977 43.2243 24.4203 43.2243 25.374V39.2205C43.2243 39.6292 42.9395 40.461 42.9395 40.461H47.3949C47.3949 40.461 47.11 39.6363 47.11 39.2205V30.0994L51.4048 38.8261H54.2168L58.4823 30.0994L58.4969 34.7747V39.2205C58.4969 39.6292 58.2121 40.461 58.2121 40.461H62.6675C62.6675 40.461 62.3826 39.6363 62.3826 39.2205Z" fill="white"/>
</g>
<defs>
<clipPath id="clip0_2837_4675">
<rect width="136" height="72" fill="white"/>
</clipPath>
</defs>
</svg>
