<svg xmlns="http://www.w3.org/2000/svg" viewBox="0 0 134.39 134.46"><defs><style>.cls-1{fill:#fff;}</style></defs><g id="Layer_2" data-name="Layer 2"><g id="Layer_1-2" data-name="Layer 1"><path class="cls-1" d="M40.83,30.56H55.29a88.69,88.69,0,0,0-1.76,15.28H45.81a3.06,3.06,0,0,0,0,6.11h7.73a88.6,88.6,0,0,0,1.79,15.28H40.77a42.58,42.58,0,0,1,.06-36.67M64.32,8.91a49.91,49.91,0,0,0-7.48,15.53H44.37A43,43,0,0,1,64.32,8.91M122,45.84H105.29a88.69,88.69,0,0,0-1.76-15.28h3.37a3.06,3.06,0,0,0,0-6.12H102A49.9,49.9,0,0,0,94.51,8.91,42.84,42.84,0,0,1,122,45.84M97.22,67.23H82.47V30.56H97.25a82.39,82.39,0,0,1,1.94,15.28H91.63a3.06,3.06,0,1,0,0,6.11h7.51a80.6,80.6,0,0,1-1.92,15.28M76.36,52V67.23H61.58A82,82,0,0,1,59.65,52Zm0-21.39V45.84H59.64a81.57,81.57,0,0,1,1.93-15.28Zm3-24.45c6.58,0,12.52,7.34,16.16,18.33H82.47V15.27a3.06,3.06,0,0,0-6.11,0v9.17H63.25c3.64-11,9.58-18.33,16.16-18.33M38.94,73.35H95.5c-.21.65-.39,1.35-.62,2a3.06,3.06,0,0,0,5.72,2.15c.49-1.32.88-2.73,1.3-4.13h5a3.06,3.06,0,0,0,0-6.11h-3.44A87.91,87.91,0,0,0,105.25,52h16.8a42.43,42.43,0,0,1-8.42,22.61,3.05,3.05,0,1,0,4.88,3.67,48.88,48.88,0,1,0-88-29.34,49.09,49.09,0,0,0,5.65,22.84,3,3,0,0,0,2.75,1.62"/><path class="cls-1" d="M100.85,110.73a33.58,33.58,0,0,1-16.45,6.52l-43,4.78a33,33,0,0,1-3.71.21H21.38V108.11L34.7,92.87a21.4,21.4,0,0,1,16.09-7.31H82.47a9.18,9.18,0,0,1-9.17,9.17H55a3.06,3.06,0,1,0,0,6.11H84.57a35.06,35.06,0,0,0,14.74-3.27l13-6.09a14.17,14.17,0,0,1,14,.15m7.19-2.11A20.23,20.23,0,0,0,109.55,86L96.73,92a28.93,28.93,0,0,1-11.25,2.65,15.1,15.1,0,0,0,3.09-9.12,6.11,6.11,0,0,0-6.1-6.11H50.79a27.5,27.5,0,0,0-20.69,9.4L19.3,101.21a9.13,9.13,0,0,0-7.08-3.42H3.06a3.06,3.06,0,1,0,0,6.11h9.16a3.06,3.06,0,0,1,3,3.06v18.33a3.06,3.06,0,0,1-3,3.06H3.06a3.06,3.06,0,1,0,0,6.11h9.16a9.12,9.12,0,0,0,8.59-6.11H37.68a37.83,37.83,0,0,0,4.38-.25l43-4.78a39.63,39.63,0,0,0,19.43-7.7l28.65-21.5a3,3,0,0,0,.33-4.6"/></g></g></svg>