<svg xmlns="http://www.w3.org/2000/svg" viewBox="0 0 136.15 157.36"><defs><style>.cls-1{fill:#fff;}</style></defs><g id="Layer_2" data-name="Layer 2"><g id="Layer_1-2" data-name="Layer 1"><path class="cls-1" d="M102.17,133.32a34,34,0,0,1-16.66,6.61l-43.58,4.84a33.71,33.71,0,0,1-3.76.21H21.66V130.66l13.5-15.43a21.62,21.62,0,0,1,16.3-7.4H83.55a9.3,9.3,0,0,1-9.29,9.29H55.7a3.1,3.1,0,1,0,0,6.19h30A35.5,35.5,0,0,0,100.61,120l13.19-6.17A14.35,14.35,0,0,1,128,114m7.28-2.14A20.49,20.49,0,0,0,111,108.31l-13,6.07a29.35,29.35,0,0,1-11.4,2.69,15.36,15.36,0,0,0,3.13-9.24,6.19,6.19,0,0,0-6.18-6.19H51.46a27.82,27.82,0,0,0-21,9.51L19.55,123.67a9.25,9.25,0,0,0-7.17-3.46H3.1a3.1,3.1,0,0,0,0,6.2h9.28a3.09,3.09,0,0,1,3.09,3.09v18.57a3.1,3.1,0,0,1-3.09,3.1H3.1a3.1,3.1,0,1,0,0,6.19h9.28a9.25,9.25,0,0,0,8.71-6.19H38.17a38.74,38.74,0,0,0,4.44-.25l43.58-4.84a40.18,40.18,0,0,0,19.69-7.8l29-21.78a3.1,3.1,0,0,0,.33-4.67"/><path class="cls-1" d="M55.78,63.25a2.25,2.25,0,0,0,.58.07,2.28,2.28,0,0,0,2.19-1.68l5.51-20.93H85.42a2.27,2.27,0,1,0,0-4.53H65.25l7.89-30a2.28,2.28,0,0,1,2.19-1.69h6.6a2.27,2.27,0,0,1,2.19,1.69l2.69,10.2a2.27,2.27,0,0,0,4.38-1.16L88.5,5.06A6.8,6.8,0,0,0,81.93,0h-6.6a6.8,6.8,0,0,0-6.57,5.06L54.17,60.48a2.26,2.26,0,0,0,1.61,2.77"/><path class="cls-1" d="M117.11,85.94H58.26a2.26,2.26,0,0,0,0,4.52h58.85a2.26,2.26,0,0,1,2.26,2.26V95H37.89V92.72a2.26,2.26,0,0,1,2.26-2.26h9.06a2.27,2.27,0,0,0,2.19-1.69l4.32-16.4H94.48a2.27,2.27,0,0,0,0-4.53H54a2.26,2.26,0,0,0-2.18,1.69L47.46,85.94H40.15a6.79,6.79,0,0,0-6.78,6.78v4.52a2.26,2.26,0,0,0,2.25,2.26h86a2.26,2.26,0,0,0,2.25-2.26V92.72a6.79,6.79,0,0,0-6.78-6.78"/><path class="cls-1" d="M71.84,24.88a2.26,2.26,0,0,0,2.26,2.26H89.64l7.14,27.13H67.31a2.27,2.27,0,0,0,0,4.53H98l5.51,20.93a2.26,2.26,0,0,0,2.19,1.68,2.22,2.22,0,0,0,.57-.07,2.26,2.26,0,0,0,1.62-2.77L93.57,24.3a2.27,2.27,0,0,0-2.19-1.68H74.1a2.26,2.26,0,0,0-2.26,2.26"/></g></g></svg>