<svg xmlns="http://www.w3.org/2000/svg" viewBox="0 0 152.28 152.28"><defs><style>.cls-1{fill:#fff;}.cls-2{fill:#80bc00;}.cls-3{fill:#0033a1;}</style></defs><g id="Layer_2" data-name="Layer 2"><g id="Layer_1-2" data-name="Layer 1"><circle class="cls-1" cx="76.14" cy="76.14" r="76.14"/><path class="cls-2" d="M88.24,100.05a223.12,223.12,0,0,1,51.82,4.47,70,70,0,1,0-122.77,9.33A219.93,219.93,0,0,1,88.24,100.05Z"/><path class="cls-3" d="M32.34,131.12A70,70,0,0,0,139,106.6,167.85,167.85,0,0,0,32.34,131.12Z"/><path class="cls-1" d="M83.86,83.53a4.94,4.94,0,0,1-3.9-1,18.12,18.12,0,0,0,3.19-3.18,7.22,7.22,0,0,0,.69-.86,17.74,17.74,0,0,0,3-10.16,17.19,17.19,0,0,0-9.14-15.43,20.77,20.77,0,0,0-19.08,0A17.18,17.18,0,0,0,49.52,68.3,17.54,17.54,0,0,0,58.3,83.76a19.12,19.12,0,0,0,9.22,2.54l0,0,.65,0a20.89,20.89,0,0,0,4.94-.56,12.92,12.92,0,0,0,5.15,3.7,10.11,10.11,0,0,0,6.17.37,9.5,9.5,0,0,0,4.4-2.44c.12-.12-3.09-5-3.09-5A2.84,2.84,0,0,1,83.86,83.53ZM63.57,77.87a10.54,10.54,0,0,1-3.47-4,11.84,11.84,0,0,1-1.31-5.56,12,12,0,0,1,1.28-5.52,10.08,10.08,0,0,1,3.48-3.93,8.56,8.56,0,0,1,4.76-1.42A8.3,8.3,0,0,1,73,58.9a9.78,9.78,0,0,1,3.38,3.93,13.09,13.09,0,0,1,0,11.08,10.85,10.85,0,0,1-1.53,2.32c-.27-.42-.54-.83-.85-1.24a9,9,0,0,0-4.33-3.4l-4.57,4.72a6.77,6.77,0,0,1,3.13,2.11,7.92,7.92,0,0,1,.66.86c-.2,0-.39,0-.59,0A8.35,8.35,0,0,1,63.57,77.87Z"/><path class="cls-1" d="M42.45,66.62a47.92,47.92,0,0,0-5.94-2.07c-1.62-.49-2.83-.89-3.65-1.2a6.37,6.37,0,0,1-2.07-1.24A2.45,2.45,0,0,1,30,60.22a2,2,0,0,1,1-1.8,4.78,4.78,0,0,1,2.64-.62,17.35,17.35,0,0,1,5.25,1c2.09.7,5,2,5.56,3.41l3.73-7.94a24.27,24.27,0,0,0-6.41-2.84,26.62,26.62,0,0,0-7.39-1.06A18.84,18.84,0,0,0,27,51.71a10.89,10.89,0,0,0-4.83,3.72,9.55,9.55,0,0,0-1.7,5.62,8.42,8.42,0,0,0,1.65,5.45,10.33,10.33,0,0,0,4,3.06,46.44,46.44,0,0,0,5.87,2c1.58.42,2.8.79,3.67,1.1a6.53,6.53,0,0,1,2.17,1.26,2.56,2.56,0,0,1,.86,2,2.4,2.4,0,0,1-1.15,2.17,5.85,5.85,0,0,1-3.18.74A16.79,16.79,0,0,1,28,77.32c-2.38-1-4.83-2.45-5.83-4.41l-3.86,7.67a23.41,23.41,0,0,0,7.37,4.11,25.46,25.46,0,0,0,8.56,1.51A19.47,19.47,0,0,0,41.31,85a11.08,11.08,0,0,0,5-3.68,9.58,9.58,0,0,0,1.82-5.89,8.83,8.83,0,0,0-1.68-5.6A10.41,10.41,0,0,0,42.45,66.62Z"/><path class="cls-1" d="M129.32,83V73.65h0V53.79a4.43,4.43,0,0,1,.59-2.7H119.48l-.8,1.65-9.16,18.57-9.18-18.54-.82-1.68H89.11a4.34,4.34,0,0,1,.59,2.69V83a12,12,0,0,1-.59,2.63h9.22A11.91,11.91,0,0,1,97.74,83V63.76l8.88,18.45h5.81l8.83-18.45,0,9.89h0V83a12,12,0,0,1-.59,2.63h9.22A11.91,11.91,0,0,1,129.32,83Z"/></g></g></svg>