<svg xmlns="http://www.w3.org/2000/svg" viewBox="0 0 136.15 123.84"><defs><style>.cls-1{fill:#fff;}</style></defs><g id="Layer_2" data-name="Layer 2"><g id="Layer_1-2" data-name="Layer 1"><path class="cls-1" d="M77.36,58.82a3.07,3.07,0,0,0,2.18-.9L104.3,33.15a3.1,3.1,0,0,0-4.38-4.38L86.51,42.19a15.38,15.38,0,0,1-3-8.85c0-4.45,2.06-8.76,6.13-12.8C96.36,13.91,115.42,9,126.11,6.93c-2.12,10.61-7,29.5-13.68,36.13-5.3,5.26-10.62,7.33-15.83,6.16a3.1,3.1,0,0,0-1.36,6,18.89,18.89,0,0,0,4.16.47c4.79,0,10.88-1.82,17.39-8.27,10.72-10.65,16-42.52,16.22-43.87A3.09,3.09,0,0,0,129.47,0C128.11.26,96,5.49,85.32,16.14c-5.21,5.18-8,11.13-8,17.21a21.69,21.69,0,0,0,4.73,13.26l-6.92,6.93a3.09,3.09,0,0,0,2.19,5.28"/><path class="cls-1" d="M38.27,34.93a18.1,18.1,0,0,0,7.21,4.62,2.82,2.82,0,0,0,1,.15,3.1,3.1,0,0,0,1-6,12,12,0,0,1-4.73-3.1C39,26.91,36.26,16.8,34.83,10.09c6.64,1.44,16.63,4.23,20.25,7.88s4.61,7.35,2.78,10.78l-3.07-3.08a3.1,3.1,0,1,0-4.38,4.38L62.79,42.44a3.1,3.1,0,1,0,4.38-4.38l-4.83-4.83c4.28-6.19,3.32-13.39-2.87-19.62C52.68,6.76,33.6,3.49,31.44,3.14A3.06,3.06,0,0,0,28.76,4a3.1,3.1,0,0,0-.87,2.68c.34,2.17,3.59,21.4,10.38,28.25"/><path class="cls-1" d="M102.17,99.8a34,34,0,0,1-16.66,6.6l-43.58,4.85a36.29,36.29,0,0,1-3.76.21H21.66V97.14L35.16,81.7a21.65,21.65,0,0,1,16.3-7.4H83.55a9.3,9.3,0,0,1-9.29,9.29H55.7a3.1,3.1,0,1,0,0,6.19h30a35.5,35.5,0,0,0,14.93-3.32l13.19-6.17a14.35,14.35,0,0,1,14.16.16m7.28-2.14A20.49,20.49,0,0,0,111,74.78L98,80.85a29.35,29.35,0,0,1-11.4,2.69,15.34,15.34,0,0,0,3.13-9.24,6.19,6.19,0,0,0-6.18-6.19H51.46a27.83,27.83,0,0,0-21,9.52L19.55,90.15a9.25,9.25,0,0,0-7.17-3.46H3.1a3.1,3.1,0,1,0,0,6.19h9.28A3.1,3.1,0,0,1,15.47,96v18.58a3.1,3.1,0,0,1-3.09,3.1H3.1a3.1,3.1,0,1,0,0,6.19h9.28a9.27,9.27,0,0,0,8.71-6.19H38.17a41.15,41.15,0,0,0,4.44-.25l43.58-4.84a40.19,40.19,0,0,0,19.69-7.81l29-21.78a3.11,3.11,0,0,0,1.23-2.26,3.07,3.07,0,0,0-.9-2.4"/></g></g></svg>