<svg width="111" height="36" viewBox="0 0 111 36" fill="none" xmlns="http://www.w3.org/2000/svg">
<g clip-path="url(#clip0_2837_1768)">
<mask id="mask0_2837_1768" style="mask-type:luminance" maskUnits="userSpaceOnUse" x="0" y="0" width="111" height="36">
<path d="M110.392 0.355469H0.0078125V35.0916H110.392V0.355469Z" fill="white"/>
</mask>
<g mask="url(#mask0_2837_1768)">
<path d="M20.8847 7.88144C21.9651 7.44872 23.1151 7.21493 24.2789 7.19141C25.6492 7.19141 26.3341 7.71346 26.3337 8.75757C26.3022 9.63333 26.1622 10.5018 25.9169 11.3432C25.5048 12.9134 25.2832 13.761 25.258 13.888L23.4521 23.014C23.1552 24.3495 22.9797 25.7091 22.9279 27.0762C22.9013 28.0097 23.1886 28.9253 23.7438 29.6767C22.8422 30.2893 21.7842 30.6321 20.6943 30.6649C18.9224 30.6649 18.0367 29.8481 18.0371 28.2144C18.1417 26.6785 18.367 25.1531 18.7109 23.6525L20.5583 14.3397C20.9187 12.7718 21.1576 11.1785 21.2729 9.57394C21.2693 8.98854 21.138 8.41096 20.8881 7.88144" fill="white"/>
<path d="M28.7077 7.88144C29.7881 7.44859 30.9381 7.2148 32.1019 7.19141C33.4722 7.19141 34.1576 7.71346 34.1581 8.75757C34.1256 9.63328 33.9854 10.5017 33.7406 11.3432C33.3276 12.9134 33.1078 13.7617 33.081 13.888L31.2758 23.014C30.9789 24.3495 30.8034 25.7091 30.7516 27.0762C30.7242 28.0093 31.0102 28.9248 31.5641 29.6767C30.6625 30.2893 29.6045 30.6321 28.5146 30.6649C26.7432 30.6649 25.8574 29.8481 25.8574 28.2144C25.9619 26.6784 26.1874 25.153 26.5319 23.6525L28.3773 14.3397C28.7372 12.7717 28.9761 11.1784 29.0919 9.57394C29.0875 8.98863 28.9569 8.41121 28.7077 7.88144Z" fill="white"/>
<path d="M73.9362 18.9971C76.3771 14.078 78.8587 11.6181 81.3808 11.6172C83.2946 11.6172 84.2519 12.583 84.2528 14.5145C84.1424 16.6159 83.8064 18.6993 83.2506 20.7289C82.6945 22.7629 82.359 24.8507 82.2497 26.9562C82.207 27.9277 82.4917 28.8855 83.0582 29.6763C82.1511 30.2945 81.0846 30.6379 79.9869 30.6652C78.2912 30.6652 77.4433 29.8491 77.4433 28.2168C77.4785 26.7047 77.6607 25.1996 77.9872 23.7227C78.8988 19.2189 79.355 16.7413 79.3559 16.2899C79.3559 15.792 79.2023 15.5428 78.8949 15.5428C78.3057 15.5428 77.0199 17.3086 75.0377 20.8403C73.0554 24.372 72.0659 27.1113 72.0691 29.0583C72.0825 29.4777 72.1597 29.8927 72.2982 30.2889C71.4302 30.5335 70.5333 30.6608 69.6315 30.6672C68.0785 30.6672 67.3023 30.1076 67.3027 28.9883C67.3267 28.2467 67.4397 27.5107 67.6393 26.796L68.1785 24.6301C69.4432 19.2705 70.076 15.6791 70.0769 13.8557C70.0786 13.373 69.9863 12.8946 69.8049 12.4471C70.7926 12.0641 71.8377 11.8492 72.8965 11.8114C74.2687 11.8114 74.9545 12.3824 74.954 13.5243C74.7423 15.3708 74.4015 17.2001 73.9341 18.9991" fill="white"/>
<path d="M92.981 9.00094C92.1617 9.42613 91.2575 9.66261 90.3347 9.69302C89.1285 9.69302 88.5256 9.35841 88.5261 8.6892C88.5404 8.3462 88.5859 8.00521 88.6621 7.67045C88.7379 7.33563 88.7834 6.99467 88.798 6.65169C88.7848 6.45486 88.7244 6.26409 88.6219 6.09545C89.5592 5.71649 90.5545 5.50057 91.5647 5.45703C92.8792 5.45703 93.5365 5.95939 93.5365 6.96411C93.4705 7.66999 93.2833 8.35923 92.983 9.00162M86.9099 12.5C87.9916 12.0723 89.1404 11.8387 90.3034 11.81C91.6737 11.81 92.3588 12.3307 92.3588 13.3721C92.343 13.9536 92.2564 14.5311 92.1011 15.0917C90.5976 20.948 89.8458 24.9411 89.8458 27.0709C89.8166 28.0051 90.1041 28.9217 90.6617 29.6722C89.7663 30.2865 88.713 30.6309 87.6272 30.6644C85.8671 30.6644 84.9868 29.8476 84.9863 28.214C85.1336 25.844 85.5209 23.495 86.1422 21.2029C86.7638 18.9107 87.1511 16.5614 87.2981 14.1912C87.2943 13.6058 87.1629 13.0283 86.9132 12.4987" fill="white"/>
<path d="M104.89 26.0117C105.007 26.4037 105.076 26.8085 105.094 27.2172C105.094 28.2745 104.3 29.1393 102.714 29.8117C101.163 30.4778 99.492 30.8214 97.8035 30.8216C93.9555 30.8216 92.0315 28.9554 92.0315 25.2232C91.9717 21.7636 93.128 18.3925 95.2993 15.6965C96.2443 14.4211 97.4779 13.3872 98.8994 12.6789C100.321 11.9707 101.89 11.6084 103.478 11.6214C106.249 11.6214 107.634 12.2024 107.634 13.3642C107.634 14.3282 106.759 15.3505 105.008 16.4313C104.278 14.8919 103.326 14.1221 102.152 14.1221C99.0495 14.1221 97.4982 17.3672 97.4982 23.8574C97.4982 26.5261 98.3567 27.8604 100.074 27.8604C101.518 27.8604 103.121 27.2446 104.884 26.0131" fill="white"/>
<path d="M39.7022 8.60475C41.5345 9.11655 43.3081 9.81856 44.9941 10.6993L47.758 12.3069L50.5886 12.3178C49.0037 11.8144 47.5111 11.0575 46.169 10.0765C46.5835 9.99342 47.0087 9.97737 47.4282 10.029L48.0028 10.0819C55.3291 10.1071 60.1131 5.83645 67.0715 5.85683C72.5722 5.87517 73.45 9.10802 73.9198 9.10937C74.3897 9.11073 74.2381 8.15039 74.2394 7.79925C74.2544 3.41181 69.9728 0.371169 65.4703 0.355548C56.7297 0.325665 52.5624 8.73583 46.2819 8.71478C43.1929 8.70459 41.0559 6.07348 39.6437 6.06601C39.5077 6.06569 39.3731 6.09316 39.2482 6.14672C39.1232 6.20029 39.0106 6.27882 38.9172 6.37749C38.8237 6.47616 38.7515 6.59288 38.7049 6.72047C38.6583 6.84806 38.6383 6.98382 38.6462 7.1194C38.6325 7.44855 38.7288 7.7729 38.92 8.04134C39.1112 8.30977 39.3864 8.50703 39.7022 8.60203" fill="white"/>
<path d="M10.9378 20.1818C9.50077 22.6001 7.71515 24.7938 5.63835 26.6924L5.41397 26.1776C4.61414 24.395 4.43973 22.395 4.91898 20.5011C5.37862 18.5912 6.43502 16.877 7.93517 15.607C8.16486 15.4085 8.40621 15.2239 8.65794 15.0541C8.65794 15.0582 8.6525 15.0609 8.6491 15.0663C8.6457 15.0718 5.18143 19.413 5.9552 24.3506C5.93888 22.9284 6.90711 17.7796 10.098 14.4592C10.1028 14.4496 10.1042 14.4429 10.1089 14.434C10.1842 14.4223 10.2587 14.4141 10.3326 14.4096C10.668 14.3902 11.0004 14.4823 11.278 14.6713C11.5556 14.8604 11.7627 15.1359 11.8672 15.4548C12.3627 16.5908 12.0524 18.1665 10.9378 20.1818ZM18.3497 12.5283C17.3955 12.0613 16.3478 11.8163 15.2853 11.8118C14.9056 11.7923 14.5262 11.856 14.1738 11.9986C13.8214 12.1412 13.5046 12.359 13.2455 12.6369C12.2109 11.9511 10.992 11.5957 9.75059 11.6182C7.07618 11.6182 4.78458 13.1687 2.87578 16.2698C1.03892 19.1192 0.0447969 22.4288 0.0078125 25.8176C0.0078125 29.1537 1.19611 30.8215 3.57271 30.8211C5.86771 30.8211 8.37101 28.3663 11.0826 23.4568C10.8641 24.799 10.7423 26.1552 10.7181 27.5148C10.7181 29.6167 11.67 30.6673 13.5739 30.6669C14.5808 30.6746 15.5546 30.3078 16.3058 29.6379C15.8235 28.572 15.5865 27.4116 15.6123 26.2421C15.6861 23.8126 15.982 21.3949 16.4962 19.0191C16.8494 16.7881 17.4715 14.6079 18.349 12.5262" fill="white"/>
<path d="M60.7645 20.1825C59.3258 22.6007 57.5389 24.7944 55.461 26.693L55.2366 26.1782C54.437 24.3953 54.2628 22.3951 54.7423 20.501C55.2023 18.5911 56.2589 16.877 57.7592 15.6069C57.9888 15.4087 58.2299 15.2241 58.4813 15.0541C58.4791 15.0585 58.4763 15.0626 58.4731 15.0663C58.4731 15.0663 55.0054 19.413 55.7785 24.3506C55.7622 22.9284 56.7304 17.7796 59.9207 14.4591C59.9247 14.451 59.9281 14.4426 59.9309 14.434C60.0071 14.4225 60.0818 14.4143 60.1553 14.4096C60.4908 14.3902 60.8233 14.4822 61.101 14.6713C61.3787 14.8603 61.586 15.1358 61.6906 15.4548C62.1856 16.5908 61.876 18.1665 60.7618 20.1818M68.1907 12.5283C67.2365 12.0613 66.1888 11.8163 65.1263 11.8117C64.7466 11.7922 64.3672 11.8559 64.0148 11.9985C63.6624 12.141 63.3455 12.359 63.0865 12.6369C62.0517 11.9512 60.8326 11.5959 59.5909 11.6182C56.9165 11.6182 54.6251 13.1687 52.7168 16.2698C50.8811 19.1191 49.888 22.4281 49.8516 25.8162C49.8516 29.1523 51.0398 30.8201 53.4164 30.8197C55.711 30.8197 58.2143 28.3649 60.9263 23.4554C60.7076 24.7976 60.5858 26.1538 60.5619 27.5135C60.5619 29.6153 61.5138 30.666 63.4176 30.6655C64.4244 30.6733 65.398 30.3065 66.1489 29.6366C65.667 28.5705 65.4302 27.4101 65.456 26.2407C65.5295 23.8112 65.8254 21.3934 66.34 19.0177C66.6935 16.7868 67.3156 14.6067 68.1928 12.5249" fill="white"/>
<path d="M42.41 21.2841C41.4186 23.2143 40.3464 24.2242 39.1932 24.3139C38.8629 24.3561 38.5276 24.2935 38.2348 24.1351C37.942 23.9767 37.7064 23.7304 37.5613 23.431C37.5246 23.3631 37.4934 23.2951 37.4614 23.2204C37.4667 23.2138 37.4715 23.2067 37.4757 23.1994C38.2877 19.8613 40.2615 16.9203 43.0443 14.9019C38.7608 16.5129 37.184 21.6257 37.184 21.6257C37.1832 21.6303 37.1815 21.6346 37.1792 21.6386C37.1795 21.3377 37.1967 21.037 37.2309 20.7381C37.4023 18.879 38.1923 17.1308 39.4747 15.7726C40.7074 14.4626 42.3953 13.6735 44.1921 13.5674L44.7149 13.5266C44.3407 16.2114 43.5649 18.8248 42.4134 21.2794M48.0412 11.8056C47.669 11.7579 47.2909 11.8076 46.9438 11.9499C46.5967 12.0922 46.2925 12.3222 46.0612 12.6172C44.9864 11.9536 43.7462 11.6057 42.4827 11.6134C41.1958 11.6067 39.927 11.916 38.7879 12.5141C37.6487 13.1122 36.6742 13.9807 35.9499 15.0432C34.2297 17.338 33.3236 20.1395 33.3743 23.0058C33.3743 26.2885 34.4946 27.9298 36.7352 27.9298C38.9672 27.9298 41.425 25.9865 44.1084 22.0998C43.1892 27.3896 42.3834 30.4285 41.6913 31.2163C41.3375 31.6107 40.9002 31.9214 40.4112 32.1259C39.9222 32.3303 39.3936 32.4233 38.8641 32.3981C36.8202 32.3981 35.1068 31.3078 33.7238 29.1272C32.0507 29.838 31.2144 30.7513 31.2148 31.8669C31.2148 32.7571 32.0353 33.5173 33.6762 34.1476C35.1577 34.7457 36.7368 35.0659 38.3344 35.0923C40.11 35.1322 41.8638 34.6954 43.4129 33.8277C44.8487 33 46.0179 31.7796 46.7826 30.3103C47.5786 28.8089 48.4371 25.01 49.3582 18.9138C49.7915 16.0201 50.3831 13.887 51.1328 12.5147C50.1607 12.071 49.1077 11.8315 48.0391 11.811" fill="white"/>
<path d="M47.5469 34.8035H48.0262V33.6741H48.031L48.9095 34.8035H49.3895V32.9609H48.9095V34.0904H48.9047L48.0262 32.9637H47.5469V34.8035Z" fill="white"/>
<path d="M50.7026 34.1169H50.3042L50.5027 33.5301H50.5075L50.7026 34.1169ZM50.8325 34.4836L50.9522 34.8035H51.4635L50.7686 32.9609H50.245L49.5352 34.8035H50.0438L50.1709 34.4836H50.8325Z" fill="white"/>
<path d="M52.2 33.3684H52.5964V32.9609H51.3242V33.3684H51.7206V34.8056H52.2007L52.2 33.3684Z" fill="white"/>
<path d="M53.8911 32.9609V33.9315C53.8911 34.1712 53.8741 34.432 53.5654 34.432C53.2567 34.432 53.2404 34.1705 53.2404 33.9315V32.9609H52.761V33.9974C52.7458 34.1132 52.7551 34.2309 52.7884 34.3429C52.8216 34.4548 52.8781 34.5586 52.9541 34.6473C53.1302 34.7807 53.3451 34.853 53.5661 34.853C53.7871 34.853 54.002 34.7807 54.178 34.6473C54.254 34.5586 54.3105 34.4548 54.3438 34.3429C54.3771 34.2309 54.3864 34.1132 54.3711 33.9974V32.9609H53.8911Z" fill="white"/>
<path d="M55.1539 33.3277H55.2008C55.3572 33.3277 55.5333 33.3569 55.5333 33.5579C55.5333 33.759 55.3572 33.7875 55.2008 33.7875H55.1539V33.3277ZM55.6298 34.0483C55.7493 34.0261 55.8564 33.9608 55.9309 33.8649C56.0053 33.769 56.0419 33.6491 56.0337 33.5281C56.0337 33.1341 55.757 32.9609 55.3925 32.9609H54.6738V34.8035H55.1498V34.0945H55.1552L55.6081 34.8035H56.2044L55.6298 34.0483Z" fill="white"/>
<path d="M57.3386 34.1169H56.9395L57.1381 33.5301H57.1428L57.3386 34.1169ZM57.4685 34.4836L57.5882 34.8035H58.1002L57.4053 32.9609H56.8817L56.1719 34.8035H56.6805L56.8076 34.4836H57.4685Z" fill="white"/>
<path d="M58.7274 32.9609H58.248V34.8035H59.3026V34.396H58.7274V32.9609Z" fill="white"/>
<path d="M61.5025 33.0667C61.3248 32.9708 61.1266 32.9189 60.9246 32.9153C60.8411 32.91 60.7575 32.9222 60.679 32.9512C60.6006 32.9803 60.5291 33.0254 60.4692 33.0837C60.4093 33.142 60.3623 33.2122 60.3313 33.2897C60.3002 33.3673 60.2857 33.4505 60.2889 33.534C60.2889 33.8912 60.4874 33.9687 60.7879 34.0542C60.8906 34.0834 61.079 34.1303 61.079 34.2648C61.079 34.3993 60.9593 34.4502 60.8464 34.4502C60.6859 34.4407 60.5345 34.3728 60.4208 34.2593L60.2168 34.6458C60.4063 34.7802 60.6324 34.8534 60.8648 34.8557C61.0542 34.8609 61.2395 34.7996 61.3883 34.6825C61.4547 34.6188 61.5063 34.5413 61.5393 34.4555C61.5723 34.3697 61.586 34.2777 61.5794 34.186C61.5794 33.8878 61.3808 33.7581 61.1238 33.6827L61.0014 33.6454C60.9185 33.6182 60.7886 33.5775 60.7886 33.4695C60.7886 33.3615 60.9062 33.316 60.9926 33.316C61.1096 33.3184 61.2221 33.3613 61.3108 33.4375L61.5025 33.0667Z" fill="white"/>
<path d="M62.7338 33.3636C62.8666 33.362 62.9949 33.4117 63.092 33.5023C63.189 33.5929 63.2473 33.7174 63.2546 33.8499C63.2591 33.921 63.2489 33.9923 63.2248 34.0593C63.2006 34.1263 63.1629 34.1877 63.1141 34.2396C63.0652 34.2915 63.0063 34.3329 62.9408 34.3612C62.8754 34.3895 62.8048 34.4041 62.7335 34.4041C62.6622 34.4041 62.5916 34.3895 62.5261 34.3612C62.4607 34.3329 62.4017 34.2915 62.3529 34.2396C62.304 34.1877 62.2664 34.1263 62.2422 34.0593C62.218 33.9923 62.2079 33.921 62.2123 33.8499C62.2197 33.7173 62.278 33.5927 62.3752 33.5021C62.4724 33.4114 62.6009 33.3618 62.7338 33.3636ZM62.7338 32.8991C62.5394 32.9061 62.3514 32.9706 62.1936 33.0843C62.0359 33.198 61.9154 33.3559 61.8473 33.538C61.7793 33.72 61.7668 33.9182 61.8114 34.1073C61.856 34.2965 61.9557 34.4682 62.0979 34.6008C62.2401 34.7334 62.4185 34.8209 62.6105 34.8524C62.8025 34.8838 62.9995 34.8577 63.1767 34.7773C63.3539 34.697 63.5032 34.566 63.6059 34.401C63.7086 34.2359 63.76 34.0441 63.7537 33.8499C63.7494 33.7205 63.7196 33.5933 63.666 33.4754C63.6124 33.3576 63.536 33.2514 63.4413 33.1631C63.3465 33.0748 63.2353 33.006 63.1139 32.9607C62.9925 32.9154 62.8633 32.8944 62.7338 32.8991Z" fill="white"/>
<path d="M64.4566 32.9609H63.9766V34.8035H64.4566V32.9609Z" fill="white"/>
<path d="M65.2489 32.9609H64.7695V34.8035H65.8241V34.396H65.2489V32.9609Z" fill="white"/>
<path d="M67.8198 34.1169H67.4207L67.6192 33.5301H67.624L67.8198 34.1169ZM67.9497 34.4836L68.0693 34.8035H68.5806L67.8857 32.9609H67.3622L66.6523 34.8035H67.1616L67.2888 34.4836H67.9497Z" fill="white"/>
<path d="M68.6172 34.8035H69.0932L69.2475 33.7427H69.2522L69.6752 34.8035H69.8662L70.3089 33.7427H70.3136L70.4496 34.8035H70.929L70.6502 32.9609H70.1742L69.7778 33.9457L69.4032 32.9609H68.9313L68.6172 34.8035Z" fill="white"/>
<path d="M72.1846 33.3684V32.9609H71.1348V34.8035H72.1846V34.396H71.6148V34.0782H72.1553V33.6707H71.6148V33.3623L72.1846 33.3684Z" fill="white"/>
<path d="M72.4805 34.8035H72.9598V33.6741H72.9646L73.8431 34.8035H74.3231V32.9609H73.8431V34.0904H73.8383L72.9598 32.9637H72.4805V34.8035Z" fill="white"/>
<path d="M75.1146 33.3667H75.2275C75.2969 33.3646 75.366 33.3764 75.4307 33.4015C75.4955 33.4266 75.5544 33.4644 75.6042 33.5128C75.6539 33.5612 75.6934 33.6191 75.7203 33.683C75.7471 33.747 75.7608 33.8157 75.7605 33.885C75.7601 33.9544 75.7458 34.023 75.7184 34.0867C75.691 34.1504 75.6509 34.2079 75.6008 34.2558C75.5506 34.3037 75.4912 34.341 75.4263 34.3655C75.3613 34.39 75.2921 34.4012 75.2227 34.3984H75.1153L75.1146 33.3667ZM74.6387 34.8039H75.3186C75.4418 34.8072 75.5645 34.7859 75.6793 34.7411C75.7941 34.6963 75.8988 34.6289 75.9872 34.5431C76.0755 34.4572 76.1457 34.3545 76.1937 34.241C76.2416 34.1276 76.2663 34.0057 76.2663 33.8826C76.2663 33.7594 76.2416 33.6376 76.1937 33.5241C76.1457 33.4107 76.0755 33.308 75.9872 33.2221C75.8988 33.1362 75.7941 33.0689 75.6793 33.0241C75.5645 32.9793 75.4418 32.9579 75.3186 32.9613H74.6387V34.8039Z" fill="white"/>
<path d="M76.3652 34.8035H76.8412L76.9955 33.7427H77.0003L77.4239 34.8035H77.615L78.0583 33.7427H78.063L78.199 34.8035H78.675L78.3962 32.9609H77.9202L77.5238 33.9457L77.1499 32.9609H76.6773L76.3652 34.8035Z" fill="white"/>
<path d="M79.9307 33.3684V32.9609H78.8809V34.8035H79.9307V34.396H79.3602V34.0782H79.9042V33.6707H79.3602V33.3623L79.9307 33.3684Z" fill="white"/>
<path d="M80.2266 34.8035H80.7059V33.6741H80.7113L81.5898 34.8035H82.0692V32.9609H81.5898V34.0904H81.5864L80.708 32.9637H80.2266V34.8035Z" fill="white"/>
<path d="M83.116 33.3684H83.5124V32.9609H82.2402V33.3684H82.6366V34.8056H83.116V33.3684Z" fill="white"/>
<path d="M84.8886 33.0668C84.711 32.971 84.5131 32.919 84.3113 32.9153C84.2278 32.9099 84.1441 32.9221 84.0656 32.9511C83.987 32.98 83.9155 33.0251 83.8555 33.0834C83.7955 33.1417 83.7485 33.212 83.7174 33.2896C83.6862 33.3672 83.6718 33.4505 83.6749 33.534C83.6749 33.8913 83.8734 33.9687 84.174 34.0543C84.2766 34.0835 84.4657 34.1303 84.4657 34.2648C84.4657 34.3993 84.346 34.4502 84.2331 34.4502C84.0727 34.4407 83.9213 34.3728 83.8075 34.2594L83.6035 34.6458C83.793 34.7802 84.0191 34.8535 84.2515 34.8557C84.4409 34.861 84.6262 34.7997 84.775 34.6825C84.8415 34.6189 84.893 34.5414 84.926 34.4556C84.9591 34.3698 84.9727 34.2777 84.9661 34.186C84.9661 33.8879 84.7676 33.7582 84.5106 33.6828L84.3888 33.6454C84.3059 33.6183 84.1753 33.5775 84.1753 33.4695C84.1753 33.3615 84.293 33.316 84.3793 33.316C84.4963 33.3185 84.6088 33.3615 84.6975 33.4376L84.8886 33.0668Z" fill="white"/>
<path d="M87.0327 34.1169H86.6342L86.8321 33.5301H86.8369L87.0327 34.1169ZM87.1626 34.4836L87.2822 34.8035H87.7935L87.0987 32.9609H86.5751L85.8652 34.8035H86.3745L86.5017 34.4836H87.1626Z" fill="white"/>
<path d="M87.9434 34.8035H88.4193V33.6741H88.4241L89.3025 34.8035H89.7785V32.9609H89.3025V34.0904H89.2971L88.4193 32.9637H87.9434V34.8035Z" fill="white"/>
<path d="M90.579 33.3667H90.6918C90.7612 33.3646 90.8303 33.3764 90.8951 33.4015C90.9598 33.4266 91.0188 33.4644 91.0685 33.5128C91.1183 33.5612 91.1577 33.6191 91.1846 33.683C91.2114 33.747 91.2251 33.8157 91.2248 33.885C91.2245 33.9544 91.2102 34.023 91.1827 34.0867C91.1553 34.1504 91.1153 34.2079 91.0651 34.2558C91.0149 34.3037 90.9556 34.341 90.8906 34.3655C90.8257 34.39 90.7565 34.4012 90.6871 34.3984H90.5797L90.579 33.3667ZM90.0996 34.8039H90.7795C90.9028 34.8072 91.0254 34.7859 91.1403 34.7411C91.2551 34.6963 91.3598 34.6289 91.4481 34.5431C91.5365 34.4572 91.6067 34.3545 91.6546 34.241C91.7026 34.1276 91.7273 34.0057 91.7273 33.8826C91.7273 33.7594 91.7026 33.6376 91.6546 33.5241C91.6067 33.4107 91.5365 33.308 91.4481 33.2221C91.3598 33.1362 91.2551 33.0689 91.1403 33.0241C91.0254 32.9793 90.9028 32.9579 90.7795 32.9613H90.0996V34.8039Z" fill="white"/>
<path d="M93.8367 33.3684V32.9609H92.7773V34.8035H93.2567V34.0802H93.783V33.6727H93.2567V33.3644L93.8367 33.3684Z" fill="white"/>
<path d="M95.1533 33.3684V32.9609H94.1035V34.8035H95.1533V34.396H94.5829V34.0782H95.1268V33.6707H94.5829V33.3623L95.1533 33.3684Z" fill="white"/>
<path d="M95.9291 33.3277H95.9753C96.1324 33.3277 96.3085 33.3569 96.3085 33.5579C96.3085 33.759 96.1324 33.7875 95.9753 33.7875H95.9291V33.3277ZM96.405 34.0483C96.5245 34.0261 96.6316 33.9608 96.706 33.8649C96.7805 33.769 96.8171 33.6491 96.8089 33.5281C96.8089 33.1341 96.5322 32.9609 96.1677 32.9609H95.4531V34.8035H95.9291V34.0945H95.9345L96.3867 34.8035H96.9836L96.405 34.0483Z" fill="white"/>
<path d="M97.8485 33.3684H98.2449V32.9609H96.9707V33.3684H97.3671V34.8056H97.8471L97.8485 33.3684Z" fill="white"/>
<path d="M98.898 32.9609H98.418V34.8035H98.898V32.9609Z" fill="white"/>
<path d="M99.6903 32.9609H99.2109V34.8035H100.266V34.396H99.6903V32.9609Z" fill="white"/>
<path d="M100.902 32.9609H100.422V34.8035H100.902V32.9609Z" fill="white"/>
<path d="M101.891 34.3981L102.759 32.9609H101.234V33.3684H101.958L101.084 34.8056H102.661V34.3981H101.891Z" fill="white"/>
<path d="M103.993 33.3684V32.9609H102.939V34.8035H103.989V34.396H103.42V34.0782H103.96V33.6707H103.42V33.3623L103.993 33.3684Z" fill="white"/>
<path d="M104.768 33.3277H104.814C104.971 33.3277 105.147 33.3569 105.147 33.5579C105.147 33.759 104.971 33.7875 104.814 33.7875H104.768V33.3277ZM105.244 34.0483C105.363 34.0261 105.47 33.9608 105.545 33.8649C105.619 33.769 105.656 33.6491 105.648 33.5281C105.648 33.1341 105.371 32.9609 105.006 32.9609H104.289V34.8035H104.768V34.0945H104.773L105.225 34.8035H105.822L105.244 34.0483Z" fill="white"/>
<path d="M107.156 33.0668C106.979 32.9709 106.781 32.919 106.579 32.9153C106.495 32.9099 106.412 32.9221 106.333 32.9511C106.255 32.98 106.183 33.0251 106.123 33.0834C106.063 33.1417 106.016 33.212 105.985 33.2896C105.954 33.3672 105.939 33.4505 105.943 33.534C105.943 33.8913 106.141 33.9687 106.442 34.0543C106.544 34.0835 106.733 34.1303 106.733 34.2648C106.733 34.3993 106.613 34.4502 106.501 34.4502C106.34 34.4408 106.189 34.3729 106.075 34.2594L105.871 34.6458C106.061 34.7801 106.287 34.8534 106.519 34.8557C106.709 34.861 106.894 34.7997 107.043 34.6825C107.109 34.6189 107.161 34.5414 107.194 34.4556C107.227 34.3698 107.24 34.2777 107.234 34.186C107.234 33.8879 107.035 33.7582 106.779 33.6828L106.656 33.6454C106.573 33.6183 106.444 33.5775 106.444 33.4695C106.444 33.3615 106.561 33.316 106.648 33.316C106.764 33.3186 106.877 33.3615 106.965 33.4376L107.156 33.0668Z" fill="white"/>
<path d="M107.676 9.9244C107.145 9.91891 106.627 9.75655 106.188 9.45778C105.749 9.159 105.408 8.73717 105.209 8.24539C105.009 7.75361 104.96 7.21387 105.067 6.69414C105.174 6.1744 105.432 5.69791 105.81 5.32465C106.188 4.95139 106.667 4.69805 107.189 4.59654C107.71 4.49503 108.25 4.54988 108.74 4.75418C109.23 4.95849 109.649 5.30311 109.944 5.74466C110.238 6.18622 110.395 6.70496 110.395 7.23557C110.388 7.95124 110.098 8.63511 109.589 9.13858C109.08 9.64204 108.392 9.92444 107.676 9.9244ZM107.676 5.17021C107.126 5.17021 106.6 5.38813 106.211 5.77603C105.823 6.16394 105.605 6.69005 105.605 7.23862C105.605 7.7872 105.823 8.31331 106.211 8.70121C106.6 9.08911 107.126 9.30704 107.676 9.30704C108.225 9.30704 108.752 9.08911 109.14 8.70121C109.528 8.31331 109.746 7.7872 109.746 7.23862C109.746 6.69005 109.528 6.16394 109.14 5.77603C108.752 5.38813 108.225 5.17021 107.676 5.17021ZM107.934 8.66047L107.362 7.78841V8.65775H106.442V5.72373H107.685C107.815 5.71015 107.948 5.72464 108.073 5.76624C108.198 5.80784 108.312 5.87559 108.409 5.96496C108.505 6.05433 108.581 6.16325 108.633 6.28446C108.684 6.40566 108.708 6.53635 108.704 6.66778C108.714 6.84567 108.664 7.02168 108.564 7.16887C108.463 7.31605 108.317 7.42632 108.148 7.48279L109.08 8.65911L107.934 8.66047ZM107.416 6.41105H107.362V7.00601H107.413C107.608 7.00601 107.827 6.93809 107.827 6.70853C107.827 6.47897 107.608 6.41105 107.413 6.41105" fill="white"/>
</g>
</g>
<defs>
<clipPath id="clip0_2837_1768">
<rect width="110.385" height="34.7368" fill="white" transform="translate(0.0078125 0.355469)"/>
</clipPath>
</defs>
</svg>
