<svg width="127" height="28" viewBox="0 0 127 28" fill="none" xmlns="http://www.w3.org/2000/svg">
<g clip-path="url(#clip0_2837_187)">
<path d="M9.92102 0.515625V16.3579H9.84346L5.68652 0.515625H0.324219V26.9797H4.13247V7.66096H4.21004L9.33825 26.9797H13.7286V0.515625H9.92102Z" fill="white"/>
<mask id="mask0_2837_187" style="mask-type:luminance" maskUnits="userSpaceOnUse" x="0" y="0" width="127" height="28">
<path d="M126.478 0.515625H0.324219V27.3577H126.478V0.515625Z" fill="white"/>
</mask>
<g mask="url(#mask0_2837_187)">
<path d="M16.7578 20.704V0.515625H21.0314V21.0065C21.0314 22.8967 21.8476 23.5773 23.2074 23.5773C24.5672 23.5773 25.3833 22.8974 25.3833 21.0065V0.515625H29.5018V20.704C29.5018 24.9386 27.3259 27.3577 23.1298 27.3577C18.9338 27.3577 16.7578 24.9386 16.7578 20.704Z" fill="white"/>
<path d="M35.8722 4.29669H31.4043V0.515625H44.6144V4.29601H40.1458V26.9804H35.8722V4.29669Z" fill="white"/>
<path d="M46.6738 0.515625H53.0067C57.4362 0.515625 59.3396 2.51937 59.3396 6.60232V8.22802C59.3396 10.9477 58.4459 12.689 56.5445 13.4451V13.5206C58.6814 14.1631 59.3808 16.1294 59.3808 19.1157V23.7691C59.3027 24.8601 59.4615 25.955 59.8469 26.9824H55.495C55.2623 26.3025 55.1065 25.8857 55.1065 23.731V18.8899C55.1065 16.4327 54.3686 15.6385 52.4253 15.6385H50.9495V26.9804H46.6752L46.6738 0.515625ZM52.5022 11.8575C54.0954 11.8575 55.0667 11.1775 55.0667 9.05957V7.01979C55.0667 5.1296 54.4063 4.30009 52.8907 4.30009H50.9481V11.8581L52.5022 11.8575Z" fill="white"/>
<path d="M66.6057 0.515625H62.332V26.9804H66.6057V0.515625Z" fill="white"/>
<path d="M69.7949 0.515625H74.0686V23.1993H81.1009V26.9797H69.7949V0.515625Z" fill="white"/>
<path d="M86.4587 0.515625H92.248L96.6774 26.9804H92.4031L91.6261 21.7252V21.7973H86.7697L85.9927 26.977H82.0293L86.4587 0.515625ZM91.1209 18.2093L89.2175 5.12824H89.1399L87.2749 18.2093H91.1209Z" fill="white"/>
<path d="M98.7363 0.515625H103.01V11.6664L108.45 0.515625H112.723L107.634 10.2324L112.805 26.9804H108.337L104.723 15.185L103.014 18.55V26.9811H98.7405L98.7363 0.515625Z" fill="white"/>
<path d="M114.822 0.515625H126.478V4.29601H119.097V11.2904H124.966V15.0715H119.097V23.1993H126.479V26.9797H114.822V0.515625Z" fill="white"/>
</g>
</g>
<defs>
<clipPath id="clip0_2837_187">
<rect width="126.154" height="26.8421" fill="white" transform="translate(0.324219 0.515625)"/>
</clipPath>
</defs>
</svg>
