<svg width="129" height="31" viewBox="0 0 129 31" fill="none" xmlns="http://www.w3.org/2000/svg">
<g clip-path="url(#clip0_2837_2198)">
<mask id="mask0_2837_2198" style="mask-type:luminance" maskUnits="userSpaceOnUse" x="0" y="0" width="129" height="31">
<path d="M128.254 0.9375H0.523438V30.9375H128.254V0.9375Z" fill="white"/>
</mask>
<g mask="url(#mask0_2837_2198)">
<path d="M9.15605 18.0169C8.02313 21.0572 7.88116 21.6568 8.13614 22.7779C8.41285 24.0573 9.55663 24.8203 11.1785 24.8203C12.0889 24.8048 12.9869 24.6053 13.8193 24.2338C14.6518 23.8623 15.4016 23.3263 16.0246 22.6576C17.0046 21.6181 17.4211 20.8172 18.4628 18.0169L23.8362 3.57422H30.6902L24.9604 18.9747C23.5008 22.8939 22.039 25.0129 19.3328 27.1742C16.3385 29.6433 12.5783 30.9752 8.70839 30.9373C4.78664 30.9373 1.8015 29.3771 0.885168 26.9386C0.182526 25.0975 0.486763 22.8976 1.94492 18.9783L7.67471 3.57787H14.5287L9.15605 18.0169Z" fill="white"/>
<path d="M29.6783 30.2606H23.3379L34.2462 0.9375H40.5866L29.6783 30.2606Z" fill="white"/>
<path d="M38.7096 30.2591H32.3691L37.1326 17.459H35.0319L37.0117 12.1393H39.1123L41.1369 6.69922H47.4774L45.4491 12.1393H49.0551L47.0746 17.459H43.4694L38.7096 30.2591Z" fill="white"/>
<path d="M55.3971 12.136L54.2954 15.0953C56.6133 12.8151 58.6561 11.8945 61.3891 11.8945C61.8238 11.8945 61.9824 11.8945 62.6017 11.9361L60.325 18.056C59.5986 17.576 58.7351 17.3511 57.8687 17.4163C54.8988 17.4163 52.7916 19.1356 51.5413 22.4953L48.6539 30.2565H42.3164L49.0531 12.136H55.3971Z" fill="white"/>
<path d="M65.743 21.1768C64.8955 23.4555 66.0574 25.3345 68.316 25.3345C69.541 25.2473 70.717 24.8147 71.7094 24.0862C72.7018 23.3576 73.4705 22.3625 73.9277 21.2147C74.7919 18.8944 73.6531 17.0569 71.3967 17.0569C70.1645 17.1371 68.9799 17.5664 67.9795 18.2954C66.9792 19.0243 66.2038 20.0232 65.743 21.1768ZM83.4474 12.1362L76.7042 30.256H70.3674L71.1099 28.2551C69.3507 29.9309 67.0193 30.8616 64.5978 30.8548C59.4873 30.8548 57.1034 26.6169 59.1266 21.176C61.1671 15.6944 66.6369 11.5352 71.7459 11.5352C74.0443 11.5352 75.4786 12.2551 76.4543 13.8956L77.1062 12.1347L83.4474 12.1362Z" fill="white"/>
<path d="M90.6285 17.5353C90.451 16.4149 89.9317 15.8963 88.9784 15.8963C88.4081 15.9126 87.8538 16.0897 87.3785 16.4076C86.9033 16.7255 86.5262 17.1713 86.2902 17.6943C85.9179 18.6951 86.241 19.2159 88.0526 20.0956C91.3847 21.7733 91.9903 22.8142 91.0537 25.3351C90.4303 26.8705 89.384 28.1945 88.0381 29.1508C86.6921 30.1072 85.1027 30.6561 83.4572 30.7329C80.685 30.7329 79.2653 29.3331 79.2559 26.4942L82.1388 25.454C82.3308 27.4964 82.8828 28.1332 84.4677 28.1332C85.256 28.0975 86.0172 27.8331 86.6598 27.3718C87.3023 26.9106 87.7989 26.2722 88.0896 25.5335C88.5669 24.2534 88.1946 23.6531 86.4612 22.7734C83.2834 21.0957 82.6901 20.1336 83.5087 17.9336C84.0403 16.5887 84.9537 15.4314 86.1346 14.6061C87.3156 13.7807 88.7118 13.324 90.149 13.293C92.0519 13.293 93.1826 14.2937 93.4296 16.2924L90.6285 17.5353Z" fill="white"/>
<path d="M95.5387 22.0179C94.2283 25.5374 95.7147 28.1379 99.0026 28.1379C102.412 28.1379 105.82 25.5776 107.145 22.0179C108.483 18.4175 107.008 15.8988 103.557 15.8988C100.232 15.8988 96.8469 18.497 95.5379 22.0179M110.036 22.0179C108.204 26.9379 102.989 30.7368 98.0761 30.7368C93.2453 30.7368 90.8447 26.857 92.6433 22.0179C94.442 17.1789 99.7299 13.2969 104.563 13.2969C109.476 13.2969 111.865 17.0972 110.033 22.0179" fill="white"/>
<path d="M111.725 30.2581H108.91L119.763 1.09766H122.575L111.725 30.2581Z" fill="white"/>
<path d="M128.255 3.78724C128.25 4.32082 128.089 4.84114 127.791 5.28245C127.493 5.72375 127.072 6.06625 126.581 6.26664C126.09 6.46703 125.551 6.51633 125.032 6.40831C124.513 6.30028 124.038 6.03979 123.666 5.65974C123.294 5.27969 123.042 4.79713 122.942 4.27307C122.843 3.749 122.9 3.20693 123.106 2.71537C123.312 2.2238 123.658 1.8048 124.101 1.51131C124.543 1.21782 125.062 1.06302 125.592 1.06646C126.302 1.07492 126.981 1.36554 127.479 1.87507C127.978 2.38461 128.257 3.07184 128.255 3.78724ZM123.424 3.79526C123.415 4.08463 123.464 4.3729 123.567 4.64295C123.671 4.913 123.827 5.15931 124.027 5.36726C124.227 5.57521 124.467 5.74056 124.732 5.85348C124.996 5.9664 125.281 6.02458 125.568 6.02458C125.856 6.02458 126.141 5.9664 126.405 5.85348C126.67 5.74056 126.91 5.57521 127.11 5.36726C127.31 5.15931 127.466 4.913 127.57 4.64295C127.673 4.3729 127.722 4.08463 127.713 3.79526C127.722 3.50589 127.673 3.21762 127.57 2.94757C127.466 2.67752 127.31 2.43121 127.11 2.22326C126.91 2.01531 126.67 1.84996 126.405 1.73704C126.141 1.62412 125.856 1.56594 125.568 1.56594C125.281 1.56594 124.996 1.62412 124.732 1.73704C124.467 1.84996 124.227 2.01531 124.027 2.22326C123.827 2.43121 123.671 2.67752 123.567 2.94757C123.464 3.21762 123.415 3.50589 123.424 3.79526ZM127.041 5.3577H125.864L125.152 4.31024V5.3577H124.216V2.23355H125.563C125.702 2.21594 125.843 2.22828 125.976 2.26973C126.11 2.31118 126.233 2.3808 126.338 2.47396C126.443 2.56712 126.526 2.68168 126.584 2.81002C126.641 2.93836 126.671 3.07753 126.671 3.21828C126.682 3.41907 126.623 3.61744 126.504 3.77885C126.384 3.94026 126.213 4.05448 126.019 4.10162L127.041 5.3577ZM125.252 3.58373C125.546 3.58373 125.709 3.46629 125.709 3.26351C125.709 3.06072 125.546 2.94329 125.252 2.94329H125.152V3.58446L125.252 3.58373Z" fill="white"/>
</g>
</g>
<defs>
<clipPath id="clip0_2837_2198">
<rect width="127.731" height="30" fill="white" transform="translate(0.523438 0.9375)"/>
</clipPath>
</defs>
</svg>
