<svg width="164" height="41" viewBox="0 0 164 41" fill="none" xmlns="http://www.w3.org/2000/svg">
<g clip-path="url(#clip0_2837_1653)">
<path d="M25.0742 30.9633L24.4824 32.451H26.4041L26.1655 33.0549H24.2423L23.2076 35.6528H22.5176L24.6235 30.3594H27.3034L27.0619 30.9633H25.0742Z" fill="white"/>
<mask id="mask0_2837_1653" style="mask-type:luminance" maskUnits="userSpaceOnUse" x="1" y="3" width="162" height="34">
<path d="M162.422 3.35547H1.57617V36.5134H162.422V3.35547Z" fill="white"/>
</mask>
<g mask="url(#mask0_2837_1653)">
<path d="M30.5553 34.0146C30.3441 34.5104 29.9945 34.9376 29.5468 35.2469C29.099 35.5562 28.5713 35.7352 28.0245 35.7632C27.8061 35.7858 27.5857 35.7483 27.3878 35.6549C27.19 35.5614 27.0226 35.4157 26.9045 35.2342C26.7863 35.0526 26.722 34.8423 26.7189 34.6269C26.7157 34.4115 26.7738 34.1995 26.8866 34.0146C27.0974 33.5192 27.4466 33.0924 27.894 32.7833C28.3415 32.4743 28.8688 32.2957 29.4153 32.2682C29.6335 32.2454 29.8539 32.2827 30.0517 32.3759C30.2495 32.4691 30.417 32.6145 30.5353 32.7958C30.6537 32.9771 30.7182 33.1871 30.7218 33.4024C30.7253 33.6177 30.6677 33.8297 30.5553 34.0146ZM27.5458 34.0146C27.4751 34.1337 27.4386 34.2694 27.4402 34.4072C27.4418 34.545 27.4815 34.6799 27.555 34.7973C27.6286 34.9148 27.7332 35.0104 27.8577 35.0742C27.9823 35.1379 28.1221 35.1673 28.2624 35.1592C28.615 35.1335 28.9537 35.0131 29.2413 34.8112C29.5289 34.6093 29.7544 34.3338 29.8932 34.0146C30.1404 33.3903 29.8259 32.8729 29.1767 32.8729C28.824 32.8972 28.4851 33.0168 28.1973 33.2182C27.9095 33.4197 27.684 33.6953 27.5458 34.0146Z" fill="white"/>
<path d="M31.8039 35.6488H31.1426L33.5681 29.5547H34.2287L31.8039 35.6488Z" fill="white"/>
<path d="M34.1592 35.6488H33.5L34.8056 32.3648H35.4669L34.1592 35.6488ZM36.1914 30.8617C36.1374 30.9828 36.0503 31.0869 35.9398 31.1625C35.8293 31.238 35.6996 31.2821 35.5651 31.2899C35.5115 31.2954 35.4573 31.2863 35.4086 31.2637C35.3599 31.241 35.3185 31.2056 35.2889 31.1614C35.2593 31.1172 35.2427 31.0659 35.2408 31.013C35.239 30.9601 35.252 30.9078 35.2785 30.8617C35.3317 30.7379 35.4189 30.6309 35.5304 30.5528C35.6418 30.4746 35.7731 30.4282 35.9098 30.4188C35.9644 30.4148 36.019 30.4256 36.0678 30.45C36.1166 30.4743 36.1577 30.5113 36.1866 30.5569C36.2156 30.6025 36.2312 30.655 36.2319 30.7088C36.2326 30.7625 36.2184 30.8154 36.1906 30.8617" fill="white"/>
<path d="M39.0477 35.6511H38.3899L38.5941 35.1393H38.5784C38.2005 35.5108 37.6965 35.733 37.1624 35.7636C36.1134 35.7636 35.8512 34.9291 36.2266 33.9877C36.406 33.5166 36.7177 33.1051 37.1257 32.8009C37.5337 32.4966 38.0212 32.3121 38.5318 32.2687C38.7395 32.2516 38.9467 32.3069 39.117 32.4248C39.2874 32.5427 39.41 32.7157 39.4633 32.9134H39.4755L39.694 32.3671H40.3554L39.0477 35.6511ZM39.0785 34.0095C39.3314 33.3683 39.143 32.8297 38.4336 32.8297C38.0868 32.8609 37.7563 32.9885 37.4808 33.1974C37.2052 33.4064 36.9961 33.688 36.878 34.0095C36.6315 34.6267 36.7913 35.2047 37.4878 35.2047C37.8434 35.1809 38.184 35.0549 38.467 34.8423C38.7501 34.6298 38.963 34.3401 39.0792 34.0095" fill="white"/>
<path d="M42.3187 32.8985H42.3388C42.4772 32.713 42.6557 32.5601 42.8617 32.4506C43.0677 32.3412 43.2958 32.278 43.5297 32.2657C43.7031 32.2631 43.8722 32.3192 44.0084 32.4246L43.4796 33.0018C43.4358 32.954 43.381 32.9171 43.3199 32.8941C43.2587 32.8712 43.1929 32.8628 43.1277 32.8697C42.4162 32.8697 42.0773 33.5024 41.8652 34.0325L41.2239 35.6496H40.5625L41.8695 32.3648H42.5294L42.3187 32.8985Z" fill="white"/>
<path d="M52.237 31.3675C52.0814 31.1936 51.8877 31.0567 51.6704 30.9671C51.453 30.8774 51.2177 30.8374 50.9823 30.85C50.3205 30.898 49.6852 31.1254 49.1474 31.5069C48.6095 31.8884 48.1902 32.409 47.9363 33.0106C47.4734 34.1685 48.0216 35.1591 49.2533 35.1591C49.8591 35.138 50.4463 34.9478 50.9458 34.6107L50.6362 35.3911C50.1341 35.6223 49.5885 35.7489 49.034 35.7631C47.4576 35.7631 46.6279 34.5622 47.2384 33.0324C47.5807 32.2429 48.1415 31.5632 48.8573 31.0704C49.5731 30.5776 50.4152 30.2913 51.2883 30.244C51.734 30.2253 52.1736 30.3511 52.5394 30.6019L52.237 31.3675Z" fill="white"/>
<path d="M52.8981 34.1105C52.6831 34.6729 52.8694 35.1988 53.5 35.1988C53.7469 35.1853 53.9882 35.1216 54.2086 35.0117C54.429 34.9018 54.6238 34.7481 54.7804 34.5604L55.2183 34.862C54.9699 35.1311 54.6695 35.349 54.3345 35.5033C53.9996 35.6575 53.6367 35.745 53.2671 35.7605C52.2188 35.7605 51.882 35.0026 52.2682 34.0331C52.433 33.5354 52.7492 33.0992 53.1742 32.7832C53.5993 32.4672 54.1129 32.2866 54.6457 32.2656C55.7385 32.2656 55.9455 33.039 55.5572 34.0113L55.5163 34.1098L52.8981 34.1105ZM55.0477 33.6331C55.1631 33.1409 54.956 32.8133 54.4272 32.8133C54.1569 32.8297 53.8953 32.9136 53.6673 33.0571C53.4393 33.2006 53.2525 33.3988 53.1245 33.6331H55.0477Z" fill="white"/>
<path d="M57.8773 32.8984H57.8996C58.0375 32.713 58.2158 32.5599 58.4216 32.4505C58.6273 32.341 58.8553 32.2779 59.089 32.2657C59.2624 32.2634 59.4313 32.3195 59.5677 32.4246L59.0381 33.0018C58.9947 32.9539 58.9403 32.917 58.8793 32.894C58.8183 32.871 58.7527 32.8626 58.6877 32.8696C57.9755 32.8696 57.6373 33.5024 57.4252 34.0325L56.7803 35.6496H56.1211L57.4274 32.3648H58.088L57.8773 32.8984Z" fill="white"/>
<path d="M60.0205 35.6512H59.3613L60.4361 32.9556H60.0779L60.3129 32.3672H60.6711L61.1727 31.1094H61.832L61.3304 32.3672H61.9753L61.7402 32.9556H61.0954L60.0205 35.6512Z" fill="white"/>
<path d="M62.4406 35.6481H61.7793L63.087 32.3641H63.7462L62.4406 35.6481ZM64.4699 30.8609C64.4162 30.9822 64.3292 31.0865 64.2186 31.1621C64.108 31.2377 63.9782 31.2817 63.8437 31.2891C63.79 31.2946 63.7359 31.2855 63.6872 31.2629C63.6385 31.2402 63.597 31.2049 63.5674 31.1606C63.5378 31.1164 63.5212 31.0651 63.5194 31.0122C63.5176 30.9593 63.5306 30.907 63.557 30.8609C63.6104 30.737 63.6977 30.6301 63.8093 30.5519C63.9208 30.4737 64.0523 30.4273 64.189 30.418C64.4384 30.418 64.5645 30.6148 64.4678 30.8609" fill="white"/>
<path d="M67.9823 30.1935C67.8649 30.1213 67.7323 30.0763 67.5946 30.0621C67.1245 30.0621 66.8988 30.6308 66.7699 30.9514L66.2081 32.366H67.1181L66.8852 32.9545H65.9731L64.8982 35.65H64.2383L65.3131 32.9545H65.0151L65.2501 32.366H65.5481L66.1888 30.7644C66.2803 30.4066 66.4875 30.0874 66.7792 29.8546C67.071 29.6218 67.4317 29.4879 67.8074 29.4729C67.9552 29.4698 68.1019 29.4983 68.2373 29.5565L67.9823 30.1935Z" fill="white"/>
<path d="M67.5437 35.6481H66.8809L68.1886 32.3641H68.8492L67.5437 35.6481ZM69.5729 30.8609C69.5192 30.982 69.4322 31.0861 69.3218 31.1617C69.2114 31.2373 69.0818 31.2814 68.9474 31.2891C68.8938 31.2946 68.8396 31.2855 68.7909 31.2629C68.7422 31.2402 68.7008 31.2049 68.6712 31.1606C68.6416 31.1164 68.6249 31.0651 68.6231 31.0122C68.6213 30.9593 68.6343 30.907 68.6608 30.8609C68.7142 30.737 68.8015 30.6301 68.913 30.5519C69.0246 30.4737 69.156 30.4273 69.2928 30.418C69.5421 30.418 69.6689 30.6148 69.5715 30.8609" fill="white"/>
<path d="M70.2165 34.1105C70.0015 34.6729 70.1879 35.1988 70.8177 35.1988C71.0648 35.1856 71.3065 35.122 71.5272 35.0121C71.7479 34.9022 71.9428 34.7483 72.0996 34.5604L72.5381 34.862C72.2896 35.1307 71.9892 35.3484 71.6544 35.5026C71.3197 35.6568 70.9571 35.7445 70.5877 35.7605C69.5379 35.7605 69.2019 35.0026 69.5845 34.0331C69.7493 33.5356 70.0654 33.0995 70.4903 32.7835C70.9152 32.4676 71.4286 32.2868 71.9613 32.2656C73.0548 32.2656 73.2618 33.039 72.8735 34.0113L72.834 34.1098L70.2165 34.1105ZM72.3661 33.6331C72.4815 33.1409 72.2737 32.8133 71.7456 32.8133C71.4752 32.8299 71.2136 32.9138 70.9855 33.0573C70.7574 33.2007 70.5704 33.3989 70.4422 33.6331H72.3661Z" fill="white"/>
<path d="M76.1642 35.1363H76.1499C75.771 35.5064 75.2676 35.7283 74.734 35.7606C73.6771 35.7606 73.4242 34.9261 73.7968 33.9847C73.9758 33.5143 74.2869 33.1032 74.694 32.799C75.1012 32.4948 75.5878 32.3099 76.0976 32.2657C76.3063 32.2471 76.5149 32.3017 76.6865 32.4197C76.8581 32.5377 76.9815 32.7116 77.0349 32.9104H77.0485L78.3862 29.5547H79.0462L76.6221 35.6488H75.9615L76.1642 35.1363ZM76.6508 34.0065C76.9037 33.3653 76.716 32.8267 76.0059 32.8267C75.6592 32.8579 75.3287 32.9854 75.0533 33.1944C74.7779 33.4034 74.5689 33.6851 74.451 34.0065C74.2059 34.6238 74.365 35.1982 75.0629 35.1982C75.4178 35.1746 75.7578 35.049 76.0404 34.8371C76.323 34.6252 76.5358 34.3363 76.6522 34.0065" fill="white"/>
<path d="M85.0562 31.3589C85.0446 31.2816 85.0175 31.2073 84.9764 31.1403C84.9353 31.0734 84.8812 31.0151 84.817 30.9688C84.7528 30.9225 84.6799 30.8891 84.6026 30.8707C84.5252 30.8522 84.4448 30.8489 84.3662 30.8611C84.1121 30.8649 83.8638 30.9366 83.6482 31.0686C83.4325 31.2005 83.2576 31.3877 83.1423 31.6099C82.9775 32.0268 83.3179 32.2426 83.6117 32.3706L83.9484 32.5168C84.6155 32.8135 85.0397 33.2248 84.6872 34.11C84.4861 34.5836 84.151 34.9909 83.7214 35.2834C83.2917 35.576 82.7857 35.7416 82.2631 35.7608C82.0749 35.7781 81.8854 35.7475 81.7127 35.672C81.5401 35.5965 81.3902 35.4787 81.2775 35.3298C81.1648 35.1809 81.0931 35.006 81.0693 34.822C81.0455 34.6381 81.0705 34.4512 81.1417 34.2794L81.8948 34.1388C81.8293 34.2465 81.7959 34.3702 81.7987 34.4956C81.8014 34.621 81.8401 34.7432 81.9103 34.848C81.9806 34.9529 82.0795 35.0362 82.1957 35.0884C82.312 35.1407 82.4409 35.1598 82.5676 35.1435C82.8811 35.1195 83.1814 35.0099 83.4347 34.8271C83.6879 34.6443 83.884 34.3957 84.0007 34.1093C84.2264 33.5419 83.8481 33.2972 83.4468 33.1081L83.1258 32.9527C82.597 32.6926 82.1628 32.3481 82.4566 31.6092C82.6491 31.2022 82.9557 30.8575 83.3406 30.6153C83.7254 30.3732 84.1726 30.2436 84.6298 30.2417C84.8834 30.2111 85.1393 30.2772 85.3447 30.4263C85.55 30.5755 85.6892 30.7963 85.7334 31.0432L85.0562 31.3589Z" fill="white"/>
<path d="M89.382 34.0138C89.1707 34.5097 88.8211 34.937 88.3732 35.2464C87.9253 35.5559 87.3975 35.735 86.8505 35.763C86.6321 35.7855 86.4117 35.7478 86.2139 35.6543C86.0161 35.5607 85.8487 35.415 85.7306 35.2334C85.6125 35.0518 85.5482 34.8415 85.545 34.6261C85.5419 34.4107 85.5999 34.1987 85.7126 34.0138C85.9234 33.5182 86.2728 33.0912 86.7205 32.7822C87.1683 32.4733 87.696 32.2951 88.2427 32.2681C88.4608 32.2456 88.6809 32.283 88.8785 32.3762C89.0761 32.4694 89.2434 32.6147 89.3616 32.7959C89.4798 32.977 89.5444 33.1869 89.548 33.402C89.5516 33.6171 89.4941 33.8289 89.382 34.0138ZM86.3725 34.0138C86.3016 34.1329 86.265 34.2687 86.2665 34.4066C86.268 34.5445 86.3077 34.6795 86.3812 34.797C86.4548 34.9146 86.5594 35.0104 86.6841 35.0741C86.8088 35.1379 86.9488 35.1673 87.0891 35.1591C87.4415 35.133 87.7798 35.0124 88.067 34.8104C88.3543 34.6084 88.5794 34.3329 88.7178 34.0138C88.9671 33.3902 88.6526 32.8727 88.0012 32.8727C87.6487 32.8971 87.31 33.0165 87.0223 33.2179C86.7346 33.4192 86.5093 33.6947 86.3711 34.0138" fill="white"/>
<path d="M90.6307 35.6488H89.9707L92.3955 29.5547H93.0547L90.6307 35.6488Z" fill="white"/>
<path d="M94.1163 32.3672L93.3933 34.1839C93.1855 34.7098 93.1374 35.1738 93.7909 35.1738C94.4444 35.1738 94.7697 34.7105 94.9775 34.1839L95.702 32.3672H96.3612L95.6088 34.2542C95.4762 34.6882 95.2053 35.069 94.8357 35.3407C94.4662 35.6124 94.0176 35.7607 93.5559 35.7637C92.5441 35.7637 92.3464 35.152 92.7039 34.2542L93.4556 32.3672H94.1163Z" fill="white"/>
<path d="M97.3001 35.6512H96.6387L97.7135 32.9556H97.3552L97.5895 32.3672H97.9478L98.4495 31.1094H99.1108L98.6092 32.3672H99.2541L99.0191 32.9556H98.3741L97.3001 35.6512Z" fill="white"/>
<path d="M99.7217 35.6481H99.0625L100.369 32.3641H101.031L99.7217 35.6481ZM101.754 30.8609C101.7 30.9819 101.612 31.0858 101.502 31.1614C101.392 31.2369 101.262 31.2811 101.128 31.2891C101.074 31.2949 101.02 31.286 100.971 31.2634C100.922 31.2408 100.88 31.2054 100.851 31.1611C100.821 31.1168 100.804 31.0653 100.803 31.0123C100.801 30.9594 100.814 30.907 100.841 30.8609C100.894 30.7371 100.982 30.6302 101.093 30.552C101.204 30.4739 101.336 30.4275 101.472 30.418C101.722 30.418 101.848 30.6148 101.752 30.8609" fill="white"/>
<path d="M105.399 34.0139C105.188 34.5099 104.839 34.9372 104.391 35.2467C103.944 35.5562 103.416 35.7352 102.869 35.7631C102.651 35.7856 102.43 35.748 102.232 35.6545C102.034 35.561 101.867 35.4154 101.749 35.2338C101.63 35.0522 101.566 34.842 101.563 34.6265C101.559 34.4111 101.617 34.199 101.73 34.0139C101.941 33.5183 102.291 33.0914 102.739 32.7825C103.187 32.4736 103.714 32.2953 104.261 32.2682C104.479 32.2454 104.7 32.2827 104.897 32.3759C105.095 32.4691 105.262 32.6145 105.38 32.7958C105.499 32.9771 105.563 33.1871 105.566 33.4023C105.569 33.6174 105.512 33.8292 105.399 34.0139ZM102.39 34.0139C102.143 34.6326 102.454 35.1592 103.106 35.1592C103.459 35.1335 103.797 35.013 104.085 34.8109C104.372 34.6089 104.597 34.3332 104.736 34.0139C104.985 33.3903 104.67 32.8729 104.019 32.8729C103.667 32.8974 103.328 33.017 103.04 33.2183C102.753 33.4197 102.528 33.695 102.39 34.0139Z" fill="white"/>
<path d="M107.75 32.8081H107.765C108.093 32.4749 108.541 32.2815 109.014 32.2695C109.984 32.2695 109.984 32.8924 109.665 33.6925L108.886 35.652H108.225L108.974 33.7713C109.198 33.2088 109.268 32.8306 108.592 32.8306C107.741 32.8306 107.457 33.5463 107.218 34.1432L106.618 35.652H105.959L107.265 32.3679H107.925L107.75 32.8081Z" fill="white"/>
<path d="M112.794 33.1156C112.789 33.0356 112.752 32.9609 112.691 32.9074C112.63 32.8539 112.551 32.826 112.469 32.8294C112.365 32.8348 112.265 32.8677 112.179 32.9245C112.093 32.9813 112.024 33.06 111.98 33.1521C111.867 33.4404 112.213 33.5669 112.546 33.742C112.878 33.9171 113.173 34.1561 112.968 34.6771C112.828 34.988 112.603 35.2544 112.318 35.4465C112.032 35.6385 111.698 35.7485 111.352 35.764C111.243 35.7778 111.133 35.7694 111.027 35.7391C110.922 35.7088 110.824 35.6575 110.74 35.5882C110.656 35.519 110.587 35.4334 110.538 35.3368C110.49 35.2402 110.462 35.1348 110.457 35.0272L111.12 34.7804C111.16 35.0272 111.259 35.2023 111.576 35.2023C111.726 35.1993 111.872 35.1543 111.997 35.0724C112.122 34.9906 112.221 34.8754 112.281 34.7404C112.314 34.679 112.322 34.6076 112.303 34.5408C112.284 34.474 112.241 34.4167 112.18 34.3804L111.667 34.0521C111.363 33.8545 111.157 33.671 111.337 33.2238C111.456 32.9535 111.649 32.7209 111.895 32.5524C112.141 32.3838 112.43 32.286 112.729 32.2698C112.815 32.2601 112.901 32.2674 112.984 32.2913C113.066 32.3152 113.143 32.3552 113.209 32.4089C113.275 32.4627 113.33 32.529 113.37 32.6039C113.409 32.6788 113.433 32.7608 113.439 32.8449L112.794 33.1156Z" fill="white"/>
<path d="M20.2924 11.8946C19.9228 11.4136 19.4418 11.0257 18.8892 10.7631C18.3367 10.5005 17.7283 10.3707 17.1145 10.3844C16.0719 10.3844 14.4403 11.0172 13.9509 12.2827C13.4379 13.6129 14.7743 14.1261 15.6291 14.4552L16.9024 14.908C19.5773 15.8458 21.3027 17.4446 19.8818 21.1251C19.0266 23.5877 17.4122 25.7284 15.2622 27.2509C13.1876 28.6278 10.7446 29.3726 8.24006 29.3918C7.00785 29.4274 5.7812 29.2158 4.63531 28.7698C3.48942 28.3238 2.44843 27.6529 1.57617 26.7982L5.84679 22.0321C6.27192 22.7377 6.87438 23.3246 7.5966 23.7365C8.31882 24.1485 9.13666 24.3719 9.97195 24.3853C10.7417 24.4014 11.4988 24.1918 12.1465 23.7834C12.7941 23.375 13.3029 22.7863 13.6077 22.0926C14.2454 20.4333 12.2391 19.8596 11.1657 19.499C8.01291 18.4444 6.04384 17.4748 7.74492 13.0701C9.52841 8.45594 13.8478 5.43768 18.2158 5.43768C20.3992 5.42489 22.5326 6.07897 24.3201 7.30924L20.2924 11.8946Z" fill="white"/>
<path d="M28.4459 15.0614H28.5039C29.9207 13.6507 31.8427 12.8382 33.8608 12.7969C38.2876 12.7969 39.8633 16.6637 38.1522 21.093C36.4282 25.5617 31.9462 29.302 27.5473 29.302C25.8391 29.302 24.3179 28.6692 23.7152 27.3102L20.1633 36.5133H14.8945L23.855 13.3122H29.1209L28.4459 15.0614ZM25.9523 21.0663C25.1978 23.0265 25.8584 24.5373 27.9995 24.5373C29.0512 24.4919 30.0645 24.1363 30.9072 23.5171C31.7498 22.8979 32.3826 22.0438 32.7229 21.0663C33.4588 19.168 32.8311 17.5672 30.6901 17.5672C29.6367 17.6269 28.6248 17.991 27.7818 18.6136C26.9387 19.2362 26.3022 20.0896 25.9523 21.0663Z" fill="white"/>
<path d="M54.2169 21.9712H43.1369C42.2734 24.2041 42.937 25.4105 45.106 25.4105C45.6923 25.4114 46.2715 25.2845 46.8018 25.0392C47.3321 24.7938 47.8004 24.4361 48.1728 23.9918H53.2359C52.2283 25.6055 50.8175 26.9402 49.1373 27.8696C47.4571 28.7989 45.5629 29.2922 43.6342 29.3027C38.7151 29.3027 36.1606 26.4082 38.2214 21.0656C40.2155 15.9065 44.7993 12.7969 49.6317 12.7969C54.7815 12.7969 56.4819 16.1196 54.4404 21.3989L54.2169 21.9712ZM50.5531 18.8074C50.6464 18.5086 50.6631 18.1918 50.6017 17.8852C50.5402 17.5786 50.4026 17.2917 50.201 17.0498C49.9994 16.8079 49.7401 16.6185 49.446 16.4986C49.1519 16.3786 48.8323 16.3317 48.5153 16.3621C47.6779 16.3823 46.8607 16.619 46.1465 17.0484C45.4322 17.4777 44.8461 18.0845 44.4475 18.8074H50.5531Z" fill="white"/>
<path d="M70.4209 21.9712H59.3374C58.4775 24.2041 59.141 25.4105 61.31 25.4105C61.8958 25.4113 62.4745 25.2844 63.0042 25.039C63.5339 24.7937 64.0015 24.436 64.3733 23.9918H69.4364C68.4291 25.6058 67.0185 26.9408 65.3382 27.8703C63.6579 28.7997 61.7636 29.2927 59.8347 29.3027C54.9192 29.3027 52.3625 26.4082 54.4254 21.0656C56.4196 15.9065 61.0034 12.7969 65.8357 12.7969C70.987 12.7969 72.6859 16.1196 70.6466 21.3989L70.4209 21.9712ZM66.7536 18.8074C66.8468 18.5087 66.8635 18.192 66.8021 17.8854C66.7408 17.5789 66.6032 17.292 66.4017 17.0501C66.2002 16.8082 65.9409 16.6189 65.6469 16.4988C65.353 16.3788 65.0334 16.3319 64.7165 16.3621C63.8793 16.3821 63.0624 16.6188 62.3485 17.0482C61.6345 17.4776 61.0489 18.0845 60.6508 18.8074H66.7536Z" fill="white"/>
<path d="M103.124 8.6612C102.677 8.34834 102.157 8.15126 101.611 8.0882C99.7575 8.0882 98.8167 10.5335 98.2807 11.9199L97.3592 14.6654H100.946L99.9668 17.1964H96.3783L91.9063 28.7843H89.2988L93.7744 17.1964H90.7161L91.6971 14.6654H94.7553L95.9885 11.1057C97.1787 8.02703 99.1413 5.55155 102.501 5.55155C103.084 5.5398 103.661 5.66339 104.185 5.91222L103.124 8.6612Z" fill="white"/>
<path d="M113.559 21.7576C111.831 26.0105 107.173 29.2734 102.924 29.2734C98.6738 29.2734 96.651 26.0112 98.3742 21.7576C100.098 17.5041 104.761 14.2461 109.011 14.2461C113.261 14.2461 115.278 17.5048 113.558 21.7576M101.108 21.7576C100.033 24.4152 101.272 26.6791 103.974 26.6791C106.676 26.6791 109.752 24.4145 110.826 21.7576C111.913 19.0719 110.662 16.8362 107.959 16.8362C105.257 16.8362 102.197 19.0691 101.108 21.7576Z" fill="white"/>
<path d="M162.359 3.43351C158.226 8.33175 154.728 8.02381 149.787 8.66852C149.528 8.8928 135.743 11.6495 121.248 25.464C120.511 26.1923 119.833 26.9763 119.221 27.8087C118.949 28.329 118.803 28.6405 118.803 28.6405C118.803 28.6405 121.669 23.9025 132.69 25.2327C143.711 26.5629 151.915 20.5158 156.365 13.7186C158.853 9.92279 162.423 3.35547 162.423 3.35547C162.403 3.38299 162.382 3.40907 162.358 3.43351" fill="white"/>
<path d="M120.465 26.2252C120.465 26.2252 132.646 10.6601 148.445 8.75618C148.888 8.68612 149.337 8.65833 149.786 8.67322C154.73 8.02851 158.225 8.33645 162.358 3.4375C161.988 3.86918 159.855 6.04516 154.713 5.62403C132.3 5.16422 121.388 23.659 119.221 27.8127C119.833 26.9803 120.511 26.1963 121.248 25.468C120.987 25.7164 120.726 25.9684 120.465 26.2238" fill="white"/>
<path d="M85.2999 14.8178C84.7267 13.4595 83.1904 12.7937 81.4843 12.7937C77.0868 12.7937 72.5804 16.6008 70.8679 21.0343C69.1553 25.4678 70.7704 29.2995 75.1672 29.2995C77.1802 29.2758 79.1023 28.4733 80.5155 27.0666H80.5735L79.9064 28.7863H85.1752L94.1514 5.54297H88.8862L85.2999 14.8178ZM83.0643 21.0631C82.7244 22.041 82.0916 22.8955 81.2487 23.5148C80.4058 24.1341 79.3921 24.4894 78.3401 24.5341C76.1976 24.5341 75.5376 23.0268 76.295 21.0631C76.6441 20.0864 77.28 19.2329 78.1226 18.6102C78.9652 17.9875 79.9768 17.6235 81.03 17.564C83.1717 17.564 83.7994 19.1634 83.0643 21.0631Z" fill="white"/>
<path d="M113.689 28.7902H116.293L125.265 5.54688H122.661L113.689 28.7902Z" fill="white"/>
<path d="M128.121 5.62535C128.507 5.63792 128.88 5.7617 129.195 5.98122C129.509 6.20075 129.751 6.5063 129.889 6.85971C130.028 7.21312 130.057 7.59874 129.973 7.96841C129.89 8.33808 129.697 8.67543 129.419 8.93831C129.142 9.2012 128.791 9.37798 128.412 9.44658C128.032 9.51519 127.64 9.47257 127.285 9.32406C126.931 9.17554 126.628 8.92772 126.416 8.61152C126.203 8.29532 126.091 7.92476 126.092 7.54612C126.095 7.28975 126.149 7.03648 126.252 6.80091C126.356 6.56534 126.505 6.35213 126.693 6.17357C126.88 5.99501 127.102 5.85464 127.345 5.76055C127.588 5.66646 127.848 5.62051 128.109 5.62535H128.121ZM128.097 6.01133C127.693 6.02876 127.31 6.19958 127.031 6.48785C126.752 6.77612 126.598 7.15937 126.601 7.55695C126.604 7.95453 126.764 8.33545 127.048 8.61955C127.331 8.90365 127.716 9.06878 128.121 9.0802C128.323 9.08003 128.523 9.0397 128.709 8.96164C128.894 8.88359 129.062 8.76942 129.201 8.62605C129.341 8.48267 129.449 8.31306 129.52 8.12745C129.591 7.94184 129.622 7.74408 129.613 7.54612C129.62 7.34756 129.586 7.14963 129.514 6.96407C129.442 6.7785 129.332 6.60909 129.192 6.46587C129.051 6.32266 128.883 6.20857 128.697 6.13037C128.511 6.05216 128.311 6.01144 128.108 6.01063L128.097 6.01133ZM127.799 8.54236H127.346V6.63213C127.594 6.58423 127.846 6.56067 128.098 6.56183C128.336 6.53924 128.575 6.5925 128.779 6.71369C128.84 6.76423 128.888 6.82731 128.921 6.89841C128.954 6.96952 128.971 7.04688 128.969 7.12498C128.963 7.2346 128.92 7.33906 128.846 7.42174C128.773 7.50442 128.673 7.56058 128.563 7.58127V7.60517C128.754 7.66283 128.861 7.81609 128.921 8.07341C128.938 8.23715 128.986 8.3962 129.065 8.54166H128.575C128.499 8.39837 128.447 8.2441 128.421 8.08466C128.385 7.87374 128.265 7.77953 128.015 7.77953H127.8L127.799 8.54236ZM127.811 7.46456H128.026C128.277 7.46456 128.48 7.38301 128.48 7.18334C128.48 7.00827 128.348 6.89086 128.062 6.89086C127.978 6.88892 127.894 6.89671 127.812 6.91406L127.811 7.46456Z" fill="white"/>
</g>
</g>
<defs>
<clipPath id="clip0_2837_1653">
<rect width="160.846" height="33.1579" fill="white" transform="translate(1.57617 3.35547)"/>
</clipPath>
</defs>
</svg>
