<svg width="101" height="34" viewBox="0 0 101 34" fill="none" xmlns="http://www.w3.org/2000/svg">
<g clip-path="url(#clip0_2837_815)">
<mask id="mask0_2837_815" style="mask-type:luminance" maskUnits="userSpaceOnUse" x="0" y="0" width="101" height="34">
<path d="M100.26 0.355469H0.914062V33.5134H100.26V0.355469Z" fill="white"/>
</mask>
<g mask="url(#mask0_2837_815)">
<path d="M21.2357 15.9332C21.5238 15.4489 21.7708 14.9417 21.9742 14.4169C23.1569 11.3016 21.9062 9.12706 18.932 9.12706C15.9578 9.12706 13.2106 11.2189 12.0319 14.3349C10.8641 17.4098 12.0937 19.7478 14.8641 19.7478C15.2484 19.7429 15.6314 19.7008 16.0074 19.622L14.6372 17.1234L21.2357 15.9332ZM28.5863 27.2472L19.6644 30.4868L18.9708 27.1665C16.5033 28.0815 13.8869 28.5398 11.252 28.5187C2.66092 28.5187 -1.13053 22.736 2.01282 14.4573C5.13579 6.21754 13.591 0.355469 22.3872 0.355469C31.303 0.355469 35.1407 6.01111 31.9192 14.4983C30.6732 17.7783 29.1984 19.9495 26.2935 22.779L28.5863 27.2472Z" fill="white"/>
<path d="M35.0372 8.96681H44.3613L43.7805 10.2767C43.7635 10.3184 43.6446 10.5241 43.4958 10.8106C43.4082 10.9336 43.3328 11.138 43.1806 11.4245H43.3443C46.2037 8.71869 47.561 8.1458 51.1283 8.18547L47.4259 17.9421C46.3015 17.0411 45.8756 16.8764 44.9381 16.8764C43.8662 16.9013 42.8252 17.2371 41.9444 17.8422C41.0635 18.4472 40.3815 19.2949 39.9829 20.2801L37.0107 28.1097H27.7695L35.0372 8.96681Z" fill="white"/>
<path d="M55.6368 18.5168C55.0302 20.1151 55.6939 21.2636 57.2401 21.2636C58.0463 21.2282 58.8225 20.95 59.4647 20.4663C60.1069 19.9825 60.5846 19.3162 60.8339 18.5565C61.4555 16.9178 60.8169 15.8117 59.3087 15.8117C58.4961 15.8565 57.7147 16.1368 57.0619 16.6178C56.409 17.0988 55.9134 17.7592 55.6368 18.5168ZM69.7524 18.7616C67.5275 24.625 61.2802 28.646 54.3569 28.646C47.6402 28.646 44.382 24.4643 46.5757 18.6836C47.7962 15.6408 49.9171 13.0341 52.6603 11.2051C55.4036 9.37608 58.6412 8.41019 61.9487 8.43402C69.0724 8.43402 72.1335 12.4954 69.7524 18.7643" fill="white"/>
<path d="M79.2849 18.6389C78.6307 20.3603 79.1993 21.5498 80.664 21.5498C82.1287 21.5498 83.6532 20.3213 84.2945 18.6389C84.9161 16.9989 84.2734 15.687 82.8488 15.687C81.3835 15.687 79.9548 16.8758 79.2849 18.6389ZM74.1219 8.96493H82.9575L82.3101 10.5632C82.1448 11.0099 81.904 11.4255 81.5981 11.7924L81.8359 11.9155C84.1654 9.53849 86.5391 8.42969 89.145 8.42969C93.8672 8.42969 95.6097 12.5314 93.4154 18.3141C91.2538 24.0094 85.8713 28.6437 81.4738 28.6437C79.1525 28.6437 77.5777 27.5376 77.0125 25.4834H76.6878C76.5736 26.3735 76.3766 27.2514 76.0995 28.1058L74.3026 33.5133H64.9785L74.1219 8.96493Z" fill="white"/>
<path d="M97.6059 5.72288C97.956 5.71829 98.3032 5.78546 98.6258 5.92016C98.9484 6.05486 99.2393 6.25417 99.4803 6.50556C99.9795 7.00573 100.259 7.6805 100.259 8.3836C100.259 9.08671 99.9795 9.76148 99.4803 10.2616C99.2392 10.513 98.9483 10.7122 98.6258 10.8469C98.3032 10.9816 97.956 11.0488 97.6059 11.0443C97.2494 11.0499 96.8952 10.9853 96.5642 10.8541C96.2331 10.7229 95.9317 10.5279 95.6775 10.2803C95.4234 10.0327 95.2215 9.73748 95.0837 9.41192C94.946 9.08635 94.875 8.73691 94.875 8.38394C94.875 8.03097 94.946 7.68152 95.0837 7.35596C95.2215 7.0304 95.4234 6.73522 95.6775 6.48763C95.9317 6.24003 96.2331 6.04496 96.5642 5.91378C96.8952 5.7826 97.2494 5.71727 97.6059 5.72288ZM97.5985 6.2023C97.3138 6.19806 97.0313 6.25255 96.7691 6.3623C96.5069 6.47205 96.2706 6.63465 96.0753 6.83975C95.672 7.25467 95.4466 7.80811 95.4466 8.38394C95.4466 8.95977 95.672 9.51321 96.0753 9.92813C96.27 10.1342 96.5061 10.2976 96.7684 10.408C97.0307 10.5183 97.3135 10.5732 97.5985 10.5689C97.879 10.5715 98.157 10.5158 98.4144 10.4054C98.6718 10.295 98.903 10.1324 99.093 9.92813C99.4941 9.51285 99.718 8.96047 99.718 8.38596C99.718 7.81144 99.4941 7.25906 99.093 6.84378C98.9031 6.63932 98.672 6.47657 98.4145 6.36607C98.1571 6.25557 97.8791 6.19978 97.5985 6.2023ZM98.0305 8.6835L99.0495 9.91267H97.877L97.1664 8.89195V9.91401H96.233V6.86059H97.5747C97.866 6.84594 98.1523 6.94 98.377 7.12418C98.4764 7.21125 98.5549 7.31911 98.607 7.43994C98.659 7.56078 98.6833 7.69156 98.6779 7.82281C98.6914 8.01934 98.6336 8.21417 98.5149 8.3723C98.3962 8.53042 98.2245 8.64148 98.0305 8.68552M97.1664 8.18188H97.2669C97.5704 8.18188 97.7221 8.07766 97.7221 7.86921C97.7221 7.66076 97.5704 7.55631 97.2669 7.55587H97.1664V8.18188Z" fill="white"/>
</g>
</g>
<defs>
<clipPath id="clip0_2837_815">
<rect width="99.3461" height="33.1579" fill="white" transform="translate(0.914062 0.355469)"/>
</clipPath>
</defs>
</svg>
